<svg width="375" height="375" viewBox="0 0 375 375" fill="none" xmlns="http://www.w3.org/2000/svg">
<g id="padrone">
<g id="Logo">
<path id="Vector" d="M213.645 116.74L262.613 176.758C263.21 177.49 263.214 178.54 262.622 179.276L213.645 240.188M321.79 246.309H257.515M88.5514 158.803L54.6002 116.121C53.9588 115.315 54.035 114.153 54.7762 113.437L140.833 30.3479C141.611 29.597 142.845 29.6 143.619 30.3547L182.236 68.0064C182.734 68.4925 183.45 68.6843 184.125 68.5128L236.179 55.2785C238.149 54.7777 239.524 57.1938 238.087 58.6311L77.0885 219.629C75.6432 221.074 73.2166 219.677 73.7413 217.702L88.9192 160.561C89.0815 159.95 88.9452 159.298 88.5514 158.803Z" stroke="black" stroke-width="16" stroke-linecap="round" stroke-linejoin="round"/>
</g>
<g id="Text">
<mask id="path-2-outside-1_2009_95" maskUnits="userSpaceOnUse" x="51" y="265.309" width="275" height="82" fill="black">
<rect fill="white" x="51" y="265.309" width="275" height="82"/>
<path d="M52 286.309H57.6V296.229C58.5067 293.776 60.1867 291.456 62.64 289.269C65.0933 287.082 67.8667 285.989 70.96 285.989C81.7867 285.989 87.2 292.336 87.2 305.029C87.2 319.429 80.2133 326.629 66.24 326.629C63.7333 326.629 60.8533 326.042 57.6 324.869V346.309H52V286.309ZM70.88 286.629C67.5733 286.629 64.5867 288.069 61.92 290.949C59.2533 293.776 57.8133 296.336 57.6 298.629V324.149C60.8533 325.376 63.7067 325.989 66.16 325.989C76.4533 325.989 81.6 318.976 81.6 304.949C81.6 292.736 78.0267 286.629 70.88 286.629ZM126.662 326.309C123.035 326.309 120.555 325.616 119.222 324.229C117.995 323.056 117.382 322.042 117.382 321.189V319.509C114.769 324.256 110.582 326.629 104.822 326.629C98.1019 326.629 94.2885 323.589 93.3819 317.509C93.2752 316.869 93.2219 316.229 93.2219 315.589C93.2219 314.896 93.3285 314.149 93.5419 313.349C93.7552 312.549 94.3685 311.669 95.3819 310.709C97.4085 308.789 101.862 307.616 108.742 307.189C110.449 307.029 112.022 306.949 113.462 306.949C114.902 306.949 116.209 307.002 117.382 307.109V293.829C117.275 293.776 117.275 293.536 117.382 293.109C117.489 292.629 117.382 292.042 117.062 291.349C116.795 290.602 116.422 289.882 115.942 289.189C115.462 288.496 114.609 287.909 113.382 287.429C112.155 286.896 110.555 286.629 108.582 286.629C106.609 286.629 104.289 287.002 101.622 287.749C99.0085 288.442 97.0885 289.136 95.8619 289.829L95.5419 289.269C100.289 287.082 105.115 285.989 110.022 285.989C115.515 285.989 119.142 286.976 120.902 288.949C122.289 290.496 122.982 292.122 122.982 293.829V320.629C122.982 322.176 123.275 323.376 123.862 324.229C124.502 325.029 125.142 325.456 125.782 325.509L126.662 325.669H129.142V326.309H126.662ZM106.102 325.989C108.929 325.989 111.462 325.029 113.702 323.109C115.995 321.136 117.222 319.242 117.382 317.429V307.749C115.942 307.642 114.475 307.589 112.982 307.589C111.542 307.589 110.102 307.669 108.662 307.829C104.609 308.309 101.969 309.216 100.742 310.549C99.5152 311.882 98.9019 313.722 98.9019 316.069C98.9019 316.496 98.9285 316.976 98.9819 317.509C99.4619 323.162 101.835 325.989 106.102 325.989ZM133.544 307.749C133.544 300.816 135.224 295.456 138.584 291.669C141.944 287.882 146.984 285.989 153.704 285.989C156.85 285.989 160.024 286.789 163.224 288.389V266.389H168.824V320.629C168.824 322.176 169.117 323.376 169.704 324.229C170.344 325.029 170.984 325.456 171.624 325.509L172.504 325.669H174.984V326.309H170.104C167.917 326.309 166.237 325.829 165.064 324.869C163.944 323.909 163.357 322.949 163.304 321.989L163.224 320.629V319.349C162.21 321.216 160.53 322.869 158.184 324.309C155.837 325.749 153.064 326.469 149.864 326.469C138.984 326.202 133.544 319.962 133.544 307.749ZM149.944 325.829C153.517 325.829 156.584 324.869 159.144 322.949C161.704 321.029 163.064 319.136 163.224 317.269V289.109C159.437 287.456 156.184 286.629 153.464 286.629C148.717 286.629 145.144 288.496 142.744 292.229C140.344 295.909 139.144 301.082 139.144 307.749C139.144 319.802 142.744 325.829 149.944 325.829ZM195.074 289.749V288.069C192.674 289.029 190.487 290.976 188.514 293.909C186.54 296.789 185.5 299.509 185.394 302.069V326.309H179.794V286.309H185.394V299.029C186.247 295.936 187.874 293.029 190.274 290.309C192.674 287.536 195.394 286.096 198.434 285.989H198.754C199.82 285.989 200.7 286.362 201.394 287.109C202.14 287.802 202.514 288.682 202.514 289.749C202.514 290.816 202.14 291.696 201.394 292.389C200.7 293.082 199.82 293.429 198.754 293.429C197.687 293.429 196.807 293.082 196.114 292.389C195.42 291.696 195.074 290.816 195.074 289.749ZM224.301 326.629C218.701 326.629 214.141 325.029 210.621 321.829C207.101 318.629 205.341 313.696 205.341 307.029C205.341 300.362 207.154 295.189 210.781 291.509C214.461 287.829 219.101 285.989 224.701 285.989C230.354 285.989 234.941 287.589 238.461 290.789C241.981 293.989 243.741 298.922 243.741 305.589C243.741 312.256 241.901 317.429 238.221 321.109C234.594 324.789 229.954 326.629 224.301 326.629ZM224.861 286.629C220.807 286.629 217.447 288.442 214.781 292.069C212.114 295.642 210.781 300.656 210.781 307.109C210.781 313.509 212.007 318.256 214.461 321.349C216.914 324.442 220.167 325.989 224.221 325.989C228.274 325.989 231.634 324.202 234.301 320.629C236.967 317.002 238.301 311.989 238.301 305.589C238.301 299.136 237.074 294.362 234.621 291.269C232.167 288.176 228.914 286.629 224.861 286.629ZM281.744 326.309C279.557 326.309 277.877 325.829 276.704 324.869C275.584 323.909 274.997 322.949 274.944 321.989L274.864 320.629V295.509C274.864 291.296 273.77 288.602 271.584 287.429C270.464 286.896 269.077 286.629 267.424 286.629C264.01 286.629 260.944 287.989 258.224 290.709C255.504 293.376 254.144 295.776 254.144 297.909V326.309H248.544V286.309H254.144V295.429C255.05 293.136 256.73 291.002 259.184 289.029C261.637 287.002 264.33 285.989 267.264 285.989C270.197 285.989 272.57 286.282 274.384 286.869C276.25 287.402 277.61 288.176 278.464 289.189C279.797 290.842 280.464 292.976 280.464 295.589V320.629C280.464 322.176 280.757 323.376 281.344 324.229C281.984 325.029 282.624 325.456 283.264 325.509L284.144 325.669H286.624V326.309H281.744ZM295.312 306.789C295.312 313.402 296.459 318.256 298.752 321.349C301.099 324.442 304.165 325.989 307.952 325.989C313.285 325.989 318.032 325.189 322.192 323.589L322.432 324.149C318.165 325.802 313.339 326.629 307.952 326.629C302.619 326.629 298.272 325.029 294.912 321.829C291.552 318.629 289.872 313.696 289.872 307.029C289.872 300.362 291.632 295.189 295.152 291.509C298.672 287.829 303.152 285.989 308.592 285.989C312.965 285.989 316.645 287.296 319.632 289.909C322.619 292.522 324.112 296.389 324.112 301.509C324.112 301.776 324.112 302.042 324.112 302.309H295.552C295.392 303.749 295.312 305.242 295.312 306.789ZM318.672 301.669C318.619 296.549 317.632 292.762 315.712 290.309C313.792 287.856 311.312 286.629 308.272 286.629C305.232 286.629 302.512 287.962 300.112 290.629C297.765 293.296 296.272 296.976 295.632 301.669H318.672Z"/>
</mask>
<path d="M52 286.309H57.6V296.229C58.5067 293.776 60.1867 291.456 62.64 289.269C65.0933 287.082 67.8667 285.989 70.96 285.989C81.7867 285.989 87.2 292.336 87.2 305.029C87.2 319.429 80.2133 326.629 66.24 326.629C63.7333 326.629 60.8533 326.042 57.6 324.869V346.309H52V286.309ZM70.88 286.629C67.5733 286.629 64.5867 288.069 61.92 290.949C59.2533 293.776 57.8133 296.336 57.6 298.629V324.149C60.8533 325.376 63.7067 325.989 66.16 325.989C76.4533 325.989 81.6 318.976 81.6 304.949C81.6 292.736 78.0267 286.629 70.88 286.629ZM126.662 326.309C123.035 326.309 120.555 325.616 119.222 324.229C117.995 323.056 117.382 322.042 117.382 321.189V319.509C114.769 324.256 110.582 326.629 104.822 326.629C98.1019 326.629 94.2885 323.589 93.3819 317.509C93.2752 316.869 93.2219 316.229 93.2219 315.589C93.2219 314.896 93.3285 314.149 93.5419 313.349C93.7552 312.549 94.3685 311.669 95.3819 310.709C97.4085 308.789 101.862 307.616 108.742 307.189C110.449 307.029 112.022 306.949 113.462 306.949C114.902 306.949 116.209 307.002 117.382 307.109V293.829C117.275 293.776 117.275 293.536 117.382 293.109C117.489 292.629 117.382 292.042 117.062 291.349C116.795 290.602 116.422 289.882 115.942 289.189C115.462 288.496 114.609 287.909 113.382 287.429C112.155 286.896 110.555 286.629 108.582 286.629C106.609 286.629 104.289 287.002 101.622 287.749C99.0085 288.442 97.0885 289.136 95.8619 289.829L95.5419 289.269C100.289 287.082 105.115 285.989 110.022 285.989C115.515 285.989 119.142 286.976 120.902 288.949C122.289 290.496 122.982 292.122 122.982 293.829V320.629C122.982 322.176 123.275 323.376 123.862 324.229C124.502 325.029 125.142 325.456 125.782 325.509L126.662 325.669H129.142V326.309H126.662ZM106.102 325.989C108.929 325.989 111.462 325.029 113.702 323.109C115.995 321.136 117.222 319.242 117.382 317.429V307.749C115.942 307.642 114.475 307.589 112.982 307.589C111.542 307.589 110.102 307.669 108.662 307.829C104.609 308.309 101.969 309.216 100.742 310.549C99.5152 311.882 98.9019 313.722 98.9019 316.069C98.9019 316.496 98.9285 316.976 98.9819 317.509C99.4619 323.162 101.835 325.989 106.102 325.989ZM133.544 307.749C133.544 300.816 135.224 295.456 138.584 291.669C141.944 287.882 146.984 285.989 153.704 285.989C156.85 285.989 160.024 286.789 163.224 288.389V266.389H168.824V320.629C168.824 322.176 169.117 323.376 169.704 324.229C170.344 325.029 170.984 325.456 171.624 325.509L172.504 325.669H174.984V326.309H170.104C167.917 326.309 166.237 325.829 165.064 324.869C163.944 323.909 163.357 322.949 163.304 321.989L163.224 320.629V319.349C162.21 321.216 160.53 322.869 158.184 324.309C155.837 325.749 153.064 326.469 149.864 326.469C138.984 326.202 133.544 319.962 133.544 307.749ZM149.944 325.829C153.517 325.829 156.584 324.869 159.144 322.949C161.704 321.029 163.064 319.136 163.224 317.269V289.109C159.437 287.456 156.184 286.629 153.464 286.629C148.717 286.629 145.144 288.496 142.744 292.229C140.344 295.909 139.144 301.082 139.144 307.749C139.144 319.802 142.744 325.829 149.944 325.829ZM195.074 289.749V288.069C192.674 289.029 190.487 290.976 188.514 293.909C186.54 296.789 185.5 299.509 185.394 302.069V326.309H179.794V286.309H185.394V299.029C186.247 295.936 187.874 293.029 190.274 290.309C192.674 287.536 195.394 286.096 198.434 285.989H198.754C199.82 285.989 200.7 286.362 201.394 287.109C202.14 287.802 202.514 288.682 202.514 289.749C202.514 290.816 202.14 291.696 201.394 292.389C200.7 293.082 199.82 293.429 198.754 293.429C197.687 293.429 196.807 293.082 196.114 292.389C195.42 291.696 195.074 290.816 195.074 289.749ZM224.301 326.629C218.701 326.629 214.141 325.029 210.621 321.829C207.101 318.629 205.341 313.696 205.341 307.029C205.341 300.362 207.154 295.189 210.781 291.509C214.461 287.829 219.101 285.989 224.701 285.989C230.354 285.989 234.941 287.589 238.461 290.789C241.981 293.989 243.741 298.922 243.741 305.589C243.741 312.256 241.901 317.429 238.221 321.109C234.594 324.789 229.954 326.629 224.301 326.629ZM224.861 286.629C220.807 286.629 217.447 288.442 214.781 292.069C212.114 295.642 210.781 300.656 210.781 307.109C210.781 313.509 212.007 318.256 214.461 321.349C216.914 324.442 220.167 325.989 224.221 325.989C228.274 325.989 231.634 324.202 234.301 320.629C236.967 317.002 238.301 311.989 238.301 305.589C238.301 299.136 237.074 294.362 234.621 291.269C232.167 288.176 228.914 286.629 224.861 286.629ZM281.744 326.309C279.557 326.309 277.877 325.829 276.704 324.869C275.584 323.909 274.997 322.949 274.944 321.989L274.864 320.629V295.509C274.864 291.296 273.77 288.602 271.584 287.429C270.464 286.896 269.077 286.629 267.424 286.629C264.01 286.629 260.944 287.989 258.224 290.709C255.504 293.376 254.144 295.776 254.144 297.909V326.309H248.544V286.309H254.144V295.429C255.05 293.136 256.73 291.002 259.184 289.029C261.637 287.002 264.33 285.989 267.264 285.989C270.197 285.989 272.57 286.282 274.384 286.869C276.25 287.402 277.61 288.176 278.464 289.189C279.797 290.842 280.464 292.976 280.464 295.589V320.629C280.464 322.176 280.757 323.376 281.344 324.229C281.984 325.029 282.624 325.456 283.264 325.509L284.144 325.669H286.624V326.309H281.744ZM295.312 306.789C295.312 313.402 296.459 318.256 298.752 321.349C301.099 324.442 304.165 325.989 307.952 325.989C313.285 325.989 318.032 325.189 322.192 323.589L322.432 324.149C318.165 325.802 313.339 326.629 307.952 326.629C302.619 326.629 298.272 325.029 294.912 321.829C291.552 318.629 289.872 313.696 289.872 307.029C289.872 300.362 291.632 295.189 295.152 291.509C298.672 287.829 303.152 285.989 308.592 285.989C312.965 285.989 316.645 287.296 319.632 289.909C322.619 292.522 324.112 296.389 324.112 301.509C324.112 301.776 324.112 302.042 324.112 302.309H295.552C295.392 303.749 295.312 305.242 295.312 306.789ZM318.672 301.669C318.619 296.549 317.632 292.762 315.712 290.309C313.792 287.856 311.312 286.629 308.272 286.629C305.232 286.629 302.512 287.962 300.112 290.629C297.765 293.296 296.272 296.976 295.632 301.669H318.672Z" fill="black"/>
<path d="M52 286.309V285.309H51V286.309H52ZM57.6 286.309H58.6V285.309H57.6V286.309ZM57.6 296.229H56.6L58.538 296.576L57.6 296.229ZM62.64 289.269L61.9746 288.523L61.9746 288.523L62.64 289.269ZM57.6 324.869L57.9393 323.928L56.6 323.445V324.869H57.6ZM57.6 346.309V347.309H58.6V346.309H57.6ZM52 346.309H51V347.309H52V346.309ZM61.92 290.949L62.6474 291.635L62.6538 291.629L61.92 290.949ZM57.6 298.629L56.6043 298.537L56.6 298.583V298.629H57.6ZM57.6 324.149H56.6V324.841L57.2472 325.085L57.6 324.149ZM52 286.309V287.309H57.6V286.309V285.309H52V286.309ZM57.6 286.309H56.6V296.229H57.6H58.6V286.309H57.6ZM57.6 296.229L58.538 296.576C59.3752 294.311 60.9436 292.121 63.3054 290.016L62.64 289.269L61.9746 288.523C59.4298 290.791 57.6382 293.241 56.662 295.882L57.6 296.229ZM62.64 289.269L63.3054 290.016C65.588 287.981 68.1282 286.989 70.96 286.989V285.989V284.989C67.6051 284.989 64.5987 286.184 61.9746 288.523L62.64 289.269ZM70.96 285.989V286.989C76.1739 286.989 79.9157 288.51 82.3792 291.398C84.8686 294.317 86.2 298.801 86.2 305.029H87.2H88.2C88.2 298.564 86.8247 293.528 83.9008 290.1C80.951 286.642 76.5728 284.989 70.96 284.989V285.989ZM87.2 305.029H86.2C86.2 312.082 84.4886 317.187 81.2423 320.533C78.0015 323.873 73.0648 325.629 66.24 325.629V326.629V327.629C73.3886 327.629 78.9319 325.786 82.6777 321.926C86.418 318.071 88.2 312.376 88.2 305.029H87.2ZM66.24 326.629V325.629C63.8837 325.629 61.1221 325.076 57.9393 323.928L57.6 324.869L57.2607 325.81C60.5845 327.009 63.5829 327.629 66.24 327.629V326.629ZM57.6 324.869H56.6V346.309H57.6H58.6V324.869H57.6ZM57.6 346.309V345.309H52V346.309V347.309H57.6V346.309ZM52 346.309H53V286.309H52H51V346.309H52ZM70.88 286.629V285.629C67.2428 285.629 64.0037 287.227 61.1862 290.27L61.92 290.949L62.6538 291.629C65.1697 288.911 67.9039 287.629 70.88 287.629V286.629ZM61.92 290.949L61.1926 290.263C58.4685 293.15 56.8483 295.913 56.6043 298.537L57.6 298.629L58.5957 298.722C58.7784 296.758 60.0381 294.401 62.6474 291.635L61.92 290.949ZM57.6 298.629H56.6V324.149H57.6H58.6V298.629H57.6ZM57.6 324.149L57.2472 325.085C60.57 326.338 63.5472 326.989 66.16 326.989V325.989V324.989C63.8661 324.989 61.1367 324.414 57.9528 323.213L57.6 324.149ZM66.16 325.989V326.989C71.5589 326.989 75.7485 325.133 78.5462 321.321C81.3016 317.566 82.6 312.055 82.6 304.949H81.6H80.6C80.6 311.87 79.3251 316.879 76.9338 320.138C74.5848 323.338 71.0544 324.989 66.16 324.989V325.989ZM81.6 304.949H82.6C82.6 298.778 81.703 293.985 79.7831 290.704C77.8148 287.34 74.8041 285.629 70.88 285.629V286.629V287.629C74.1026 287.629 76.4519 288.971 78.0569 291.714C79.7104 294.54 80.6 298.907 80.6 304.949H81.6ZM119.222 324.229L119.943 323.536L119.928 323.521L119.913 323.507L119.222 324.229ZM117.382 319.509H118.382L116.506 319.027L117.382 319.509ZM93.3819 317.509L94.3709 317.362L94.3697 317.353L94.3683 317.345L93.3819 317.509ZM95.3819 310.709L94.6941 309.983L94.6941 309.983L95.3819 310.709ZM108.742 307.189L108.804 308.187L108.82 308.186L108.835 308.185L108.742 307.189ZM117.382 307.109L117.291 308.105L118.382 308.204V307.109H117.382ZM117.382 293.829H118.382V293.211L117.829 292.935L117.382 293.829ZM117.382 293.109L118.352 293.352L118.355 293.339L118.358 293.326L117.382 293.109ZM117.062 291.349L116.12 291.685L116.135 291.728L116.154 291.768L117.062 291.349ZM115.942 289.189L115.12 289.758L115.12 289.758L115.942 289.189ZM113.382 287.429L112.983 288.346L113 288.354L113.017 288.36L113.382 287.429ZM101.622 287.749L101.878 288.716L101.892 288.712L101.622 287.749ZM95.8619 289.829L94.9936 290.325L95.4874 291.189L96.3539 290.7L95.8619 289.829ZM95.5419 289.269L95.1235 288.361L94.1321 288.818L94.6736 289.765L95.5419 289.269ZM120.902 288.949L120.156 289.615L120.157 289.617L120.902 288.949ZM123.862 324.229L123.038 324.796L123.058 324.826L123.081 324.854L123.862 324.229ZM125.782 325.509L125.961 324.525L125.913 324.517L125.865 324.513L125.782 325.509ZM126.662 325.669L126.483 326.653L126.572 326.669H126.662V325.669ZM129.142 325.669H130.142V324.669H129.142V325.669ZM129.142 326.309V327.309H130.142V326.309H129.142ZM113.702 323.109L114.353 323.868L114.354 323.867L113.702 323.109ZM117.382 317.429L118.378 317.517L118.382 317.473V317.429H117.382ZM117.382 307.749H118.382V306.82L117.456 306.752L117.382 307.749ZM108.662 307.829L108.551 306.835L108.544 306.836L108.662 307.829ZM98.9819 317.509L99.9783 317.425L99.9777 317.417L99.9769 317.41L98.9819 317.509ZM126.662 326.309V325.309C123.091 325.309 120.977 324.612 119.943 323.536L119.222 324.229L118.501 324.922C120.133 326.62 122.98 327.309 126.662 327.309V326.309ZM119.222 324.229L119.913 323.507C118.713 322.358 118.382 321.6 118.382 321.189H117.382H116.382C116.382 322.485 117.278 323.753 118.531 324.952L119.222 324.229ZM117.382 321.189H118.382V319.509H117.382H116.382V321.189H117.382ZM117.382 319.509L116.506 319.027C115.277 321.259 113.701 322.895 111.789 323.979C109.873 325.065 107.563 325.629 104.822 325.629V326.629V327.629C107.841 327.629 110.504 327.006 112.775 325.719C115.049 324.43 116.873 322.506 118.258 319.991L117.382 319.509ZM104.822 326.629V325.629C101.604 325.629 99.2184 324.901 97.5452 323.567C95.8841 322.243 94.7971 320.219 94.3709 317.362L93.3819 317.509L92.3928 317.657C92.8733 320.879 94.1463 323.415 96.2985 325.131C98.4387 326.837 101.32 327.629 104.822 327.629V326.629ZM93.3819 317.509L94.3683 317.345C94.2705 316.758 94.2219 316.173 94.2219 315.589H93.2219H92.2219C92.2219 316.285 92.2799 316.98 92.3955 317.674L93.3819 317.509ZM93.2219 315.589H94.2219C94.2219 314.998 94.313 314.338 94.5081 313.607L93.5419 313.349L92.5756 313.091C92.3441 313.96 92.2219 314.794 92.2219 315.589H93.2219ZM93.5419 313.349L94.5081 313.607C94.6513 313.07 95.1089 312.345 96.0696 311.435L95.3819 310.709L94.6941 309.983C93.6282 310.993 92.8591 312.028 92.5756 313.091L93.5419 313.349ZM95.3819 310.709L96.0696 311.435C96.9063 310.642 98.3388 309.925 100.497 309.356C102.637 308.792 105.4 308.398 108.804 308.187L108.742 307.189L108.68 306.191C105.204 306.407 102.3 306.813 99.9871 307.422C97.6917 308.027 95.8841 308.856 94.6941 309.983L95.3819 310.709ZM108.742 307.189L108.835 308.185C110.516 308.027 112.058 307.949 113.462 307.949V306.949V305.949C111.986 305.949 110.381 306.031 108.649 306.194L108.742 307.189ZM113.462 306.949V307.949C114.878 307.949 116.154 308.002 117.291 308.105L117.382 307.109L117.472 306.113C116.263 306.003 114.926 305.949 113.462 305.949V306.949ZM117.382 307.109H118.382V293.829H117.382H116.382V307.109H117.382ZM117.382 293.829L117.829 292.935C118.095 293.068 118.215 293.285 118.262 293.412C118.304 293.528 118.302 293.608 118.302 293.609C118.302 293.612 118.305 293.54 118.352 293.352L117.382 293.109L116.412 292.867C116.352 293.105 116.302 293.366 116.302 293.609C116.302 293.73 116.313 293.907 116.382 294.096C116.455 294.296 116.615 294.564 116.935 294.724L117.382 293.829ZM117.382 293.109L118.358 293.326C118.532 292.543 118.334 291.719 117.97 290.93L117.062 291.349L116.154 291.768C116.43 292.366 116.445 292.715 116.406 292.892L117.382 293.109ZM117.062 291.349L118.004 291.013C117.706 290.179 117.291 289.381 116.764 288.62L115.942 289.189L115.12 289.758C115.553 290.384 115.885 291.026 116.12 291.685L117.062 291.349ZM115.942 289.189L116.764 288.62C116.124 287.695 115.062 287.013 113.746 286.498L113.382 287.429L113.017 288.36C114.155 288.806 114.8 289.297 115.12 289.758L115.942 289.189ZM113.382 287.429L113.781 286.512C112.383 285.904 110.633 285.629 108.582 285.629V286.629V287.629C110.478 287.629 111.927 287.887 112.983 288.346L113.382 287.429ZM108.582 286.629V285.629C106.489 285.629 104.074 286.024 101.352 286.786L101.622 287.749L101.892 288.712C104.503 287.981 106.728 287.629 108.582 287.629V286.629ZM101.622 287.749L101.365 286.783C98.7305 287.482 96.7104 288.201 95.3698 288.959L95.8619 289.829L96.3539 290.7C97.4667 290.071 99.2866 289.403 101.878 288.716L101.622 287.749ZM95.8619 289.829L96.7301 289.333L96.4101 288.773L95.5419 289.269L94.6736 289.765L94.9936 290.325L95.8619 289.829ZM95.5419 289.269L95.9603 290.177C100.584 288.047 105.269 286.989 110.022 286.989V285.989V284.989C104.961 284.989 99.9926 286.118 95.1235 288.361L95.5419 289.269ZM110.022 285.989V286.989C112.717 286.989 114.901 287.232 116.599 287.694C118.301 288.157 119.448 288.821 120.156 289.615L120.902 288.949L121.648 288.284C120.596 287.103 119.049 286.288 117.124 285.764C115.196 285.24 112.82 284.989 110.022 284.989V285.989ZM120.902 288.949L120.157 289.617C121.417 291.022 121.982 292.42 121.982 293.829H122.982H123.982C123.982 291.825 123.16 289.97 121.646 288.282L120.902 288.949ZM122.982 293.829H121.982V320.629H122.982H123.982V293.829H122.982ZM122.982 320.629H121.982C121.982 322.284 122.293 323.712 123.038 324.796L123.862 324.229L124.686 323.663C124.258 323.04 123.982 322.068 123.982 320.629H122.982ZM123.862 324.229L123.081 324.854C123.793 325.744 124.659 326.419 125.699 326.506L125.782 325.509L125.865 324.513C125.625 324.493 125.21 324.314 124.643 323.604L123.862 324.229ZM125.782 325.509L125.603 326.493L126.483 326.653L126.662 325.669L126.841 324.685L125.961 324.525L125.782 325.509ZM126.662 325.669V326.669H129.142V325.669V324.669H126.662V325.669ZM129.142 325.669H128.142V326.309H129.142H130.142V325.669H129.142ZM129.142 326.309V325.309H126.662V326.309V327.309H129.142V326.309ZM106.102 325.989V326.989C109.178 326.989 111.94 325.936 114.353 323.868L113.702 323.109L113.051 322.35C110.984 324.122 108.679 324.989 106.102 324.989V325.989ZM113.702 323.109L114.354 323.867C116.722 321.83 118.184 319.716 118.378 317.517L117.382 317.429L116.386 317.341C116.26 318.769 115.269 320.442 113.05 322.351L113.702 323.109ZM117.382 317.429H118.382V307.749H117.382H116.382V317.429H117.382ZM117.382 307.749L117.456 306.752C115.99 306.643 114.499 306.589 112.982 306.589V307.589V308.589C114.451 308.589 115.893 308.642 117.308 308.746L117.382 307.749ZM112.982 307.589V306.589C111.505 306.589 110.028 306.671 108.551 306.835L108.662 307.829L108.772 308.823C110.176 308.667 111.579 308.589 112.982 308.589V307.589ZM108.662 307.829L108.544 306.836C106.476 307.081 104.727 307.439 103.317 307.923C101.917 308.404 100.777 309.034 100.006 309.872L100.742 310.549L101.478 311.226C101.934 310.731 102.726 310.241 103.967 309.815C105.196 309.393 106.794 309.057 108.779 308.822L108.662 307.829ZM100.742 310.549L100.006 309.872C98.564 311.439 97.9019 313.548 97.9019 316.069H98.9019H99.9019C99.9019 313.897 100.466 312.326 101.478 311.226L100.742 310.549ZM98.9019 316.069H97.9019C97.9019 316.536 97.931 317.05 97.9868 317.609L98.9819 317.509L99.9769 317.41C99.9261 316.901 99.9019 316.455 99.9019 316.069H98.9019ZM98.9819 317.509L97.9855 317.594C98.2341 320.523 98.9829 322.877 100.356 324.512C101.763 326.188 103.724 326.989 106.102 326.989V325.989V324.989C104.213 324.989 102.854 324.377 101.888 323.226C100.887 322.035 100.21 320.149 99.9783 317.425L98.9819 317.509ZM138.584 291.669L137.836 291.005L137.836 291.005L138.584 291.669ZM163.224 288.389L162.777 289.284L164.224 290.007V288.389H163.224ZM163.224 266.389V265.389H162.224V266.389H163.224ZM168.824 266.389H169.824V265.389H168.824V266.389ZM169.704 324.229L168.88 324.796L168.9 324.826L168.923 324.854L169.704 324.229ZM171.624 325.509L171.803 324.525L171.755 324.517L171.707 324.513L171.624 325.509ZM172.504 325.669L172.325 326.653L172.414 326.669H172.504V325.669ZM174.984 325.669H175.984V324.669H174.984V325.669ZM174.984 326.309V327.309H175.984V326.309H174.984ZM165.064 324.869L164.413 325.628L164.422 325.636L164.431 325.643L165.064 324.869ZM163.304 321.989L164.302 321.934L164.302 321.93L163.304 321.989ZM163.224 320.629H162.224V320.659L162.225 320.688L163.224 320.629ZM163.224 319.349H164.224L162.345 318.872L163.224 319.349ZM158.184 324.309L158.707 325.161L158.184 324.309ZM149.864 326.469L149.839 327.469L149.851 327.469H149.864V326.469ZM159.144 322.949L158.544 322.149L158.544 322.149L159.144 322.949ZM163.224 317.269L164.22 317.355L164.224 317.312V317.269H163.224ZM163.224 289.109H164.224V288.455L163.624 288.193L163.224 289.109ZM142.744 292.229L143.581 292.775L143.585 292.77L142.744 292.229ZM133.544 307.749H134.544C134.544 300.97 136.186 295.878 139.332 292.333L138.584 291.669L137.836 291.005C134.262 295.033 132.544 300.662 132.544 307.749H133.544ZM138.584 291.669L139.332 292.333C142.445 288.824 147.171 286.989 153.704 286.989V285.989V284.989C146.797 284.989 141.442 286.941 137.836 291.005L138.584 291.669ZM153.704 285.989V286.989C156.675 286.989 159.696 287.743 162.777 289.284L163.224 288.389L163.671 287.495C160.351 285.835 157.026 284.989 153.704 284.989V285.989ZM163.224 288.389H164.224V266.389H163.224H162.224V288.389H163.224ZM163.224 266.389V267.389H168.824V266.389V265.389H163.224V266.389ZM168.824 266.389H167.824V320.629H168.824H169.824V266.389H168.824ZM168.824 320.629H167.824C167.824 322.284 168.135 323.712 168.88 324.796L169.704 324.229L170.528 323.663C170.099 323.04 169.824 322.068 169.824 320.629H168.824ZM169.704 324.229L168.923 324.854C169.635 325.744 170.501 326.419 171.541 326.506L171.624 325.509L171.707 324.513C171.466 324.493 171.052 324.314 170.485 323.604L169.704 324.229ZM171.624 325.509L171.445 326.493L172.325 326.653L172.504 325.669L172.683 324.685L171.803 324.525L171.624 325.509ZM172.504 325.669V326.669H174.984V325.669V324.669H172.504V325.669ZM174.984 325.669H173.984V326.309H174.984H175.984V325.669H174.984ZM174.984 326.309V325.309H170.104V326.309V327.309H174.984V326.309ZM170.104 326.309V325.309C168.048 325.309 166.627 324.856 165.697 324.095L165.064 324.869L164.431 325.643C165.847 326.802 167.786 327.309 170.104 327.309V326.309ZM165.064 324.869L165.715 324.11C164.693 323.234 164.334 322.505 164.302 321.934L163.304 321.989L162.305 322.045C162.38 323.393 163.195 324.584 164.413 325.628L165.064 324.869ZM163.304 321.989L164.302 321.93L164.222 320.57L163.224 320.629L162.225 320.688L162.305 322.048L163.304 321.989ZM163.224 320.629H164.224V319.349H163.224H162.224V320.629H163.224ZM163.224 319.349L162.345 318.872C161.436 320.545 159.901 322.082 157.661 323.457L158.184 324.309L158.707 325.161C161.16 323.656 162.984 321.886 164.103 319.826L163.224 319.349ZM158.184 324.309L157.661 323.457C155.496 324.785 152.91 325.469 149.864 325.469V326.469V327.469C153.218 327.469 156.179 326.713 158.707 325.161L158.184 324.309ZM149.864 326.469L149.888 325.469C144.636 325.341 140.86 323.779 138.378 320.932C135.877 318.064 134.544 313.726 134.544 307.749H133.544H132.544C132.544 313.985 133.931 318.875 136.87 322.246C139.828 325.639 144.212 327.331 149.839 327.469L149.864 326.469ZM149.944 325.829V326.829C153.707 326.829 156.991 325.814 159.744 323.749L159.144 322.949L158.544 322.149C156.177 323.924 153.327 324.829 149.944 324.829V325.829ZM159.144 322.949L159.744 323.749C162.378 321.773 164.023 319.652 164.22 317.355L163.224 317.269L162.227 317.184C162.104 318.619 161.029 320.285 158.544 322.149L159.144 322.949ZM163.224 317.269H164.224V289.109H163.224H162.224V317.269H163.224ZM163.224 289.109L163.624 288.193C159.77 286.51 156.374 285.629 153.464 285.629V286.629V287.629C155.994 287.629 159.104 288.402 162.824 290.026L163.224 289.109ZM153.464 286.629V285.629C148.405 285.629 144.501 287.646 141.903 291.688L142.744 292.229L143.585 292.77C145.786 289.346 149.029 287.629 153.464 287.629V286.629ZM142.744 292.229L141.906 291.683C139.359 295.589 138.144 300.982 138.144 307.749H139.144H140.144C140.144 301.183 141.329 296.229 143.581 292.775L142.744 292.229ZM139.144 307.749H138.144C138.144 313.843 139.048 318.579 140.985 321.822C142.971 325.147 146.003 326.829 149.944 326.829V325.829V324.829C146.685 324.829 144.316 323.498 142.702 320.796C141.04 318.013 140.144 313.709 140.144 307.749H139.144ZM195.074 288.069H196.074V286.592L194.702 287.141L195.074 288.069ZM188.514 293.909L189.339 294.474L189.343 294.467L188.514 293.909ZM185.394 302.069L184.395 302.028L184.394 302.048V302.069H185.394ZM185.394 326.309V327.309H186.394V326.309H185.394ZM179.794 326.309H178.794V327.309H179.794V326.309ZM179.794 286.309V285.309H178.794V286.309H179.794ZM185.394 286.309H186.394V285.309H185.394V286.309ZM185.394 299.029H184.394L186.358 299.295L185.394 299.029ZM190.274 290.309L191.024 290.971L191.03 290.964L190.274 290.309ZM198.434 285.989V284.989H198.416L198.399 284.99L198.434 285.989ZM201.394 287.109L200.661 287.79L200.686 287.817L200.713 287.842L201.394 287.109ZM201.394 292.389L200.713 291.656L200.7 291.669L200.687 291.682L201.394 292.389ZM196.114 292.389L196.821 291.682L196.821 291.682L196.114 292.389ZM195.074 289.749H196.074V288.069H195.074H194.074V289.749H195.074ZM195.074 288.069L194.702 287.141C192.059 288.198 189.729 290.311 187.684 293.351L188.514 293.909L189.343 294.467C191.245 291.641 193.289 289.86 195.445 288.998L195.074 288.069ZM188.514 293.909L187.689 293.344C185.647 296.324 184.511 299.224 184.395 302.028L185.394 302.069L186.393 302.111C186.489 299.795 187.434 297.254 189.339 294.474L188.514 293.909ZM185.394 302.069H184.394V326.309H185.394H186.394V302.069H185.394ZM185.394 326.309V325.309H179.794V326.309V327.309H185.394V326.309ZM179.794 326.309H180.794V286.309H179.794H178.794V326.309H179.794ZM179.794 286.309V287.309H185.394V286.309V285.309H179.794V286.309ZM185.394 286.309H184.394V299.029H185.394H186.394V286.309H185.394ZM185.394 299.029L186.358 299.295C187.166 296.366 188.711 293.592 191.024 290.971L190.274 290.309L189.524 289.648C187.037 292.466 185.328 295.505 184.43 298.763L185.394 299.029ZM190.274 290.309L191.03 290.964C193.288 288.354 195.763 287.083 198.469 286.989L198.434 285.989L198.399 284.99C195.024 285.108 192.059 286.718 189.518 289.655L190.274 290.309ZM198.434 285.989V286.989H198.754V285.989V284.989H198.434V285.989ZM198.754 285.989V286.989C199.557 286.989 200.167 287.257 200.661 287.79L201.394 287.109L202.127 286.429C201.234 285.468 200.084 284.989 198.754 284.989V285.989ZM201.394 287.109L200.713 287.842C201.246 288.336 201.514 288.946 201.514 289.749H202.514H203.514C203.514 288.419 203.035 287.269 202.074 286.376L201.394 287.109ZM202.514 289.749H201.514C201.514 290.552 201.246 291.162 200.713 291.656L201.394 292.389L202.074 293.122C203.035 292.23 203.514 291.079 203.514 289.749H202.514ZM201.394 292.389L200.687 291.682C200.198 292.17 199.581 292.429 198.754 292.429V293.429V294.429C200.06 294.429 201.203 293.995 202.101 293.096L201.394 292.389ZM198.754 293.429V292.429C197.927 292.429 197.309 292.17 196.821 291.682L196.114 292.389L195.407 293.096C196.305 293.995 197.448 294.429 198.754 294.429V293.429ZM196.114 292.389L196.821 291.682C196.332 291.194 196.074 290.576 196.074 289.749H195.074H194.074C194.074 291.055 194.508 292.198 195.407 293.096L196.114 292.389ZM210.621 321.829L211.293 321.089L210.621 321.829ZM210.781 291.509L210.073 290.802L210.068 290.807L210.781 291.509ZM238.461 290.789L239.133 290.049L239.133 290.049L238.461 290.789ZM238.221 321.109L237.514 320.402L237.508 320.407L238.221 321.109ZM214.781 292.069L215.582 292.667L215.586 292.662L214.781 292.069ZM214.461 321.349L215.244 320.728L215.244 320.728L214.461 321.349ZM234.301 320.629L235.102 321.227L235.106 321.222L234.301 320.629ZM224.301 326.629V325.629C218.903 325.629 214.597 324.093 211.293 321.089L210.621 321.829L209.948 322.569C213.684 325.965 218.499 327.629 224.301 327.629V326.629ZM210.621 321.829L211.293 321.089C208.055 318.145 206.341 313.531 206.341 307.029H205.341H204.341C204.341 313.861 206.147 319.113 209.948 322.569L210.621 321.829ZM205.341 307.029H206.341C206.341 300.546 208.1 295.654 211.493 292.211L210.781 291.509L210.068 290.807C206.208 294.724 204.341 300.179 204.341 307.029H205.341ZM210.781 291.509L211.488 292.216C214.965 288.739 219.344 286.989 224.701 286.989V285.989V284.989C218.858 284.989 213.956 286.919 210.074 290.802L210.781 291.509ZM224.701 285.989V286.989C230.155 286.989 234.486 288.527 237.788 291.529L238.461 290.789L239.133 290.049C235.396 286.651 230.553 284.989 224.701 284.989V285.989ZM238.461 290.789L237.788 291.529C241.027 294.473 242.741 299.088 242.741 305.589H243.741H244.741C244.741 298.757 242.935 293.505 239.133 290.049L238.461 290.789ZM243.741 305.589H242.741C242.741 312.069 240.957 316.958 237.514 320.402L238.221 321.109L238.928 321.816C242.844 317.9 244.741 312.443 244.741 305.589H243.741ZM238.221 321.109L237.508 320.407C234.088 323.878 229.714 325.629 224.301 325.629V326.629V327.629C230.194 327.629 235.1 325.701 238.933 321.811L238.221 321.109ZM224.861 286.629V285.629C220.451 285.629 216.806 287.627 213.975 291.477L214.781 292.069L215.586 292.662C218.089 289.258 221.164 287.629 224.861 287.629V286.629ZM214.781 292.069L213.979 291.471C211.137 295.279 209.781 300.533 209.781 307.109H210.781H211.781C211.781 300.778 213.091 296.006 215.582 292.667L214.781 292.069ZM210.781 307.109H209.781C209.781 313.605 211.02 318.62 213.677 321.971L214.461 321.349L215.244 320.728C212.995 317.891 211.781 313.413 211.781 307.109H210.781ZM214.461 321.349L213.677 321.971C216.326 325.31 219.872 326.989 224.221 326.989V325.989V324.989C220.463 324.989 217.502 323.575 215.244 320.728L214.461 321.349ZM224.221 325.989V326.989C228.624 326.989 232.268 325.024 235.102 321.227L234.301 320.629L233.499 320.031C230.999 323.381 227.924 324.989 224.221 324.989V325.989ZM234.301 320.629L235.106 321.222C237.942 317.364 239.301 312.115 239.301 305.589H238.301H237.301C237.301 311.863 235.992 316.641 233.495 320.037L234.301 320.629ZM238.301 305.589H239.301C239.301 299.042 238.062 293.999 235.404 290.648L234.621 291.269L233.837 291.891C236.086 294.726 237.301 299.229 237.301 305.589H238.301ZM234.621 291.269L235.404 290.648C232.755 287.308 229.21 285.629 224.861 285.629V286.629V287.629C228.618 287.629 231.579 289.044 233.837 291.891L234.621 291.269ZM276.704 324.869L276.053 325.628L276.062 325.636L276.071 325.643L276.704 324.869ZM274.944 321.989L275.942 321.934L275.942 321.93L274.944 321.989ZM274.864 320.629H273.864V320.659L273.865 320.688L274.864 320.629ZM271.584 287.429L272.057 286.548L272.035 286.537L272.014 286.526L271.584 287.429ZM258.224 290.709L258.924 291.423L258.931 291.416L258.224 290.709ZM254.144 326.309V327.309H255.144V326.309H254.144ZM248.544 326.309H247.544V327.309H248.544V326.309ZM248.544 286.309V285.309H247.544V286.309H248.544ZM254.144 286.309H255.144V285.309H254.144V286.309ZM254.144 295.429H253.144L255.074 295.797L254.144 295.429ZM259.184 289.029L259.811 289.808L259.821 289.8L259.184 289.029ZM274.384 286.869L274.076 287.821L274.092 287.826L274.109 287.831L274.384 286.869ZM278.464 289.189L279.242 288.561L279.236 288.553L279.229 288.545L278.464 289.189ZM281.344 324.229L280.52 324.796L280.54 324.826L280.563 324.854L281.344 324.229ZM283.264 325.509L283.443 324.525L283.395 324.517L283.347 324.513L283.264 325.509ZM284.144 325.669L283.965 326.653L284.054 326.669H284.144V325.669ZM286.624 325.669H287.624V324.669H286.624V325.669ZM286.624 326.309V327.309H287.624V326.309H286.624ZM281.744 326.309V325.309C279.688 325.309 278.267 324.856 277.337 324.095L276.704 324.869L276.071 325.643C277.487 326.802 279.426 327.309 281.744 327.309V326.309ZM276.704 324.869L277.355 324.11C276.333 323.234 275.974 322.505 275.942 321.934L274.944 321.989L273.945 322.045C274.02 323.393 274.835 324.584 276.053 325.628L276.704 324.869ZM274.944 321.989L275.942 321.93L275.862 320.57L274.864 320.629L273.865 320.688L273.945 322.048L274.944 321.989ZM274.864 320.629H275.864V295.509H274.864H273.864V320.629H274.864ZM274.864 295.509H275.864C275.864 291.196 274.75 287.993 272.057 286.548L271.584 287.429L271.111 288.31C272.791 289.212 273.864 291.396 273.864 295.509H274.864ZM271.584 287.429L272.014 286.526C270.722 285.911 269.179 285.629 267.424 285.629V286.629V287.629C268.976 287.629 270.205 287.88 271.154 288.332L271.584 287.429ZM267.424 286.629V285.629C263.711 285.629 260.398 287.12 257.517 290.002L258.224 290.709L258.931 291.416C261.489 288.858 264.31 287.629 267.424 287.629V286.629ZM258.224 290.709L257.524 289.995C254.75 292.714 253.144 295.361 253.144 297.909H254.144H255.144C255.144 296.191 256.257 294.038 258.924 291.423L258.224 290.709ZM254.144 297.909H253.144V326.309H254.144H255.144V297.909H254.144ZM254.144 326.309V325.309H248.544V326.309V327.309H254.144V326.309ZM248.544 326.309H249.544V286.309H248.544H247.544V326.309H248.544ZM248.544 286.309V287.309H254.144V286.309V285.309H248.544V286.309ZM254.144 286.309H253.144V295.429H254.144H255.144V286.309H254.144ZM254.144 295.429L255.074 295.797C255.901 293.703 257.456 291.703 259.811 289.808L259.184 289.029L258.557 288.25C256.005 290.302 254.199 292.568 253.214 295.061L254.144 295.429ZM259.184 289.029L259.821 289.8C262.111 287.908 264.583 286.989 267.264 286.989V285.989V284.989C264.078 284.989 261.163 286.097 258.547 288.258L259.184 289.029ZM267.264 285.989V286.989C270.143 286.989 272.4 287.279 274.076 287.821L274.384 286.869L274.692 285.918C272.74 285.286 270.252 284.989 267.264 284.989V285.989ZM274.384 286.869L274.109 287.831C275.869 288.333 277.02 289.028 277.699 289.833L278.464 289.189L279.229 288.545C278.2 287.324 276.632 286.472 274.658 285.908L274.384 286.869ZM278.464 289.189L277.685 289.817C278.845 291.254 279.464 293.15 279.464 295.589H280.464H281.464C281.464 292.802 280.75 290.431 279.242 288.561L278.464 289.189ZM280.464 295.589H279.464V320.629H280.464H281.464V295.589H280.464ZM280.464 320.629H279.464C279.464 322.284 279.775 323.712 280.52 324.796L281.344 324.229L282.168 323.663C281.739 323.04 281.464 322.068 281.464 320.629H280.464ZM281.344 324.229L280.563 324.854C281.275 325.744 282.141 326.419 283.181 326.506L283.264 325.509L283.347 324.513C283.106 324.493 282.692 324.314 282.125 323.604L281.344 324.229ZM283.264 325.509L283.085 326.493L283.965 326.653L284.144 325.669L284.323 324.685L283.443 324.525L283.264 325.509ZM284.144 325.669V326.669H286.624V325.669V324.669H284.144V325.669ZM286.624 325.669H285.624V326.309H286.624H287.624V325.669H286.624ZM286.624 326.309V325.309H281.744V326.309V327.309H286.624V326.309ZM298.752 321.349L297.949 321.945L297.955 321.954L298.752 321.349ZM322.192 323.589L323.111 323.195L322.732 322.31L321.833 322.656L322.192 323.589ZM322.432 324.149L322.793 325.082L323.759 324.707L323.351 323.755L322.432 324.149ZM294.912 321.829L295.602 321.105L295.602 321.105L294.912 321.829ZM295.152 291.509L294.429 290.818L294.429 290.818L295.152 291.509ZM319.632 289.909L320.29 289.157L320.29 289.157L319.632 289.909ZM324.112 302.309V303.309H325.112V302.309H324.112ZM295.552 302.309V301.309H294.657L294.558 302.199L295.552 302.309ZM318.672 301.669V302.669H319.682L319.672 301.659L318.672 301.669ZM315.712 290.309L314.924 290.925L314.924 290.925L315.712 290.309ZM300.112 290.629L299.369 289.96L299.361 289.969L300.112 290.629ZM295.632 301.669L294.641 301.534L294.486 302.669H295.632V301.669ZM295.312 306.789H294.312C294.312 313.479 295.464 318.594 297.949 321.945L298.752 321.349L299.555 320.754C297.453 317.918 296.312 313.326 296.312 306.789H295.312ZM298.752 321.349L297.955 321.954C300.485 325.289 303.843 326.989 307.952 326.989V325.989V324.989C304.487 324.989 301.712 323.596 299.549 320.745L298.752 321.349ZM307.952 325.989V326.989C313.384 326.989 318.256 326.174 322.551 324.522L322.192 323.589L321.833 322.656C317.808 324.204 313.186 324.989 307.952 324.989V325.989ZM322.192 323.589L321.273 323.983L321.513 324.543L322.432 324.149L323.351 323.755L323.111 323.195L322.192 323.589ZM322.432 324.149L322.071 323.217C317.938 324.818 313.236 325.629 307.952 325.629V326.629V327.629C313.441 327.629 318.393 326.787 322.793 325.082L322.432 324.149ZM307.952 326.629V325.629C302.834 325.629 298.748 324.101 295.602 321.105L294.912 321.829L294.222 322.553C297.796 325.957 302.403 327.629 307.952 327.629V326.629ZM294.912 321.829L295.602 321.105C292.513 318.164 290.872 313.543 290.872 307.029H289.872H288.872C288.872 313.848 290.591 319.095 294.222 322.553L294.912 321.829ZM289.872 307.029H290.872C290.872 300.538 292.582 295.642 295.875 292.2L295.152 291.509L294.429 290.818C290.682 294.736 288.872 300.187 288.872 307.029H289.872ZM295.152 291.509L295.875 292.2C299.192 288.732 303.404 286.989 308.592 286.989V285.989V284.989C302.9 284.989 298.152 286.926 294.429 290.818L295.152 291.509ZM308.592 285.989V286.989C312.75 286.989 316.188 288.225 318.973 290.662L319.632 289.909L320.29 289.157C317.102 286.367 313.181 284.989 308.592 284.989V285.989ZM319.632 289.909L318.973 290.662C321.684 293.033 323.112 296.588 323.112 301.509H324.112H325.112C325.112 296.19 323.553 292.012 320.29 289.157L319.632 289.909ZM324.112 301.509H323.112C323.112 301.51 323.112 301.51 323.112 301.511C323.112 301.511 323.112 301.512 323.112 301.512C323.112 301.513 323.112 301.513 323.112 301.514C323.112 301.514 323.112 301.515 323.112 301.515C323.112 301.516 323.112 301.516 323.112 301.517C323.112 301.517 323.112 301.518 323.112 301.519C323.112 301.519 323.112 301.52 323.112 301.52C323.112 301.521 323.112 301.521 323.112 301.522C323.112 301.522 323.112 301.523 323.112 301.523C323.112 301.524 323.112 301.524 323.112 301.525C323.112 301.525 323.112 301.526 323.112 301.526C323.112 301.527 323.112 301.527 323.112 301.528C323.112 301.528 323.112 301.529 323.112 301.529C323.112 301.53 323.112 301.53 323.112 301.531C323.112 301.532 323.112 301.532 323.112 301.533C323.112 301.533 323.112 301.534 323.112 301.534C323.112 301.535 323.112 301.535 323.112 301.536C323.112 301.536 323.112 301.537 323.112 301.537C323.112 301.538 323.112 301.538 323.112 301.539C323.112 301.539 323.112 301.54 323.112 301.54C323.112 301.541 323.112 301.541 323.112 301.542C323.112 301.542 323.112 301.543 323.112 301.544C323.112 301.544 323.112 301.545 323.112 301.545C323.112 301.546 323.112 301.546 323.112 301.547C323.112 301.547 323.112 301.548 323.112 301.548C323.112 301.549 323.112 301.549 323.112 301.55C323.112 301.55 323.112 301.551 323.112 301.551C323.112 301.552 323.112 301.552 323.112 301.553C323.112 301.553 323.112 301.554 323.112 301.554C323.112 301.555 323.112 301.555 323.112 301.556C323.112 301.557 323.112 301.557 323.112 301.558C323.112 301.558 323.112 301.559 323.112 301.559C323.112 301.56 323.112 301.56 323.112 301.561C323.112 301.561 323.112 301.562 323.112 301.562C323.112 301.563 323.112 301.563 323.112 301.564C323.112 301.564 323.112 301.565 323.112 301.565C323.112 301.566 323.112 301.566 323.112 301.567C323.112 301.567 323.112 301.568 323.112 301.569C323.112 301.569 323.112 301.57 323.112 301.57C323.112 301.571 323.112 301.571 323.112 301.572C323.112 301.572 323.112 301.573 323.112 301.573C323.112 301.574 323.112 301.574 323.112 301.575C323.112 301.575 323.112 301.576 323.112 301.576C323.112 301.577 323.112 301.577 323.112 301.578C323.112 301.578 323.112 301.579 323.112 301.579C323.112 301.58 323.112 301.58 323.112 301.581C323.112 301.582 323.112 301.582 323.112 301.583C323.112 301.583 323.112 301.584 323.112 301.584C323.112 301.585 323.112 301.585 323.112 301.586C323.112 301.586 323.112 301.587 323.112 301.587C323.112 301.588 323.112 301.588 323.112 301.589C323.112 301.589 323.112 301.59 323.112 301.59C323.112 301.591 323.112 301.591 323.112 301.592C323.112 301.592 323.112 301.593 323.112 301.594C323.112 301.594 323.112 301.595 323.112 301.595C323.112 301.596 323.112 301.596 323.112 301.597C323.112 301.597 323.112 301.598 323.112 301.598C323.112 301.599 323.112 301.599 323.112 301.6C323.112 301.6 323.112 301.601 323.112 301.601C323.112 301.602 323.112 301.602 323.112 301.603C323.112 301.603 323.112 301.604 323.112 301.604C323.112 301.605 323.112 301.605 323.112 301.606C323.112 301.607 323.112 301.607 323.112 301.608C323.112 301.608 323.112 301.609 323.112 301.609C323.112 301.61 323.112 301.61 323.112 301.611C323.112 301.611 323.112 301.612 323.112 301.612C323.112 301.613 323.112 301.613 323.112 301.614C323.112 301.614 323.112 301.615 323.112 301.615C323.112 301.616 323.112 301.616 323.112 301.617C323.112 301.617 323.112 301.618 323.112 301.619C323.112 301.619 323.112 301.62 323.112 301.62C323.112 301.621 323.112 301.621 323.112 301.622C323.112 301.622 323.112 301.623 323.112 301.623C323.112 301.624 323.112 301.624 323.112 301.625C323.112 301.625 323.112 301.626 323.112 301.626C323.112 301.627 323.112 301.627 323.112 301.628C323.112 301.628 323.112 301.629 323.112 301.629C323.112 301.63 323.112 301.63 323.112 301.631C323.112 301.632 323.112 301.632 323.112 301.633C323.112 301.633 323.112 301.634 323.112 301.634C323.112 301.635 323.112 301.635 323.112 301.636C323.112 301.636 323.112 301.637 323.112 301.637C323.112 301.638 323.112 301.638 323.112 301.639C323.112 301.639 323.112 301.64 323.112 301.64C323.112 301.641 323.112 301.641 323.112 301.642C323.112 301.642 323.112 301.643 323.112 301.644C323.112 301.644 323.112 301.645 323.112 301.645C323.112 301.646 323.112 301.646 323.112 301.647C323.112 301.647 323.112 301.648 323.112 301.648C323.112 301.649 323.112 301.649 323.112 301.65C323.112 301.65 323.112 301.651 323.112 301.651C323.112 301.652 323.112 301.652 323.112 301.653C323.112 301.653 323.112 301.654 323.112 301.654C323.112 301.655 323.112 301.655 323.112 301.656C323.112 301.657 323.112 301.657 323.112 301.658C323.112 301.658 323.112 301.659 323.112 301.659C323.112 301.66 323.112 301.66 323.112 301.661C323.112 301.661 323.112 301.662 323.112 301.662C323.112 301.663 323.112 301.663 323.112 301.664C323.112 301.664 323.112 301.665 323.112 301.665C323.112 301.666 323.112 301.666 323.112 301.667C323.112 301.667 323.112 301.668 323.112 301.669C323.112 301.669 323.112 301.67 323.112 301.67C323.112 301.671 323.112 301.671 323.112 301.672C323.112 301.672 323.112 301.673 323.112 301.673C323.112 301.674 323.112 301.674 323.112 301.675C323.112 301.675 323.112 301.676 323.112 301.676C323.112 301.677 323.112 301.677 323.112 301.678C323.112 301.678 323.112 301.679 323.112 301.679C323.112 301.68 323.112 301.68 323.112 301.681C323.112 301.682 323.112 301.682 323.112 301.683C323.112 301.683 323.112 301.684 323.112 301.684C323.112 301.685 323.112 301.685 323.112 301.686C323.112 301.686 323.112 301.687 323.112 301.687C323.112 301.688 323.112 301.688 323.112 301.689C323.112 301.689 323.112 301.69 323.112 301.69C323.112 301.691 323.112 301.691 323.112 301.692C323.112 301.692 323.112 301.693 323.112 301.694C323.112 301.694 323.112 301.695 323.112 301.695C323.112 301.696 323.112 301.696 323.112 301.697C323.112 301.697 323.112 301.698 323.112 301.698C323.112 301.699 323.112 301.699 323.112 301.7C323.112 301.7 323.112 301.701 323.112 301.701C323.112 301.702 323.112 301.702 323.112 301.703C323.112 301.703 323.112 301.704 323.112 301.704C323.112 301.705 323.112 301.705 323.112 301.706C323.112 301.707 323.112 301.707 323.112 301.708C323.112 301.708 323.112 301.709 323.112 301.709C323.112 301.71 323.112 301.71 323.112 301.711C323.112 301.711 323.112 301.712 323.112 301.712C323.112 301.713 323.112 301.713 323.112 301.714C323.112 301.714 323.112 301.715 323.112 301.715C323.112 301.716 323.112 301.716 323.112 301.717C323.112 301.717 323.112 301.718 323.112 301.719C323.112 301.719 323.112 301.72 323.112 301.72C323.112 301.721 323.112 301.721 323.112 301.722C323.112 301.722 323.112 301.723 323.112 301.723C323.112 301.724 323.112 301.724 323.112 301.725C323.112 301.725 323.112 301.726 323.112 301.726C323.112 301.727 323.112 301.727 323.112 301.728C323.112 301.728 323.112 301.729 323.112 301.729C323.112 301.73 323.112 301.73 323.112 301.731C323.112 301.732 323.112 301.732 323.112 301.733C323.112 301.733 323.112 301.734 323.112 301.734C323.112 301.735 323.112 301.735 323.112 301.736C323.112 301.736 323.112 301.737 323.112 301.737C323.112 301.738 323.112 301.738 323.112 301.739C323.112 301.739 323.112 301.74 323.112 301.74C323.112 301.741 323.112 301.741 323.112 301.742C323.112 301.742 323.112 301.743 323.112 301.744C323.112 301.744 323.112 301.745 323.112 301.745C323.112 301.746 323.112 301.746 323.112 301.747C323.112 301.747 323.112 301.748 323.112 301.748C323.112 301.749 323.112 301.749 323.112 301.75C323.112 301.75 323.112 301.751 323.112 301.751C323.112 301.752 323.112 301.752 323.112 301.753C323.112 301.753 323.112 301.754 323.112 301.754C323.112 301.755 323.112 301.755 323.112 301.756C323.112 301.757 323.112 301.757 323.112 301.758C323.112 301.758 323.112 301.759 323.112 301.759C323.112 301.76 323.112 301.76 323.112 301.761C323.112 301.761 323.112 301.762 323.112 301.762C323.112 301.763 323.112 301.763 323.112 301.764C323.112 301.764 323.112 301.765 323.112 301.765C323.112 301.766 323.112 301.766 323.112 301.767C323.112 301.767 323.112 301.768 323.112 301.769C323.112 301.769 323.112 301.77 323.112 301.77C323.112 301.771 323.112 301.771 323.112 301.772C323.112 301.772 323.112 301.773 323.112 301.773C323.112 301.774 323.112 301.774 323.112 301.775C323.112 301.775 323.112 301.776 323.112 301.776C323.112 301.777 323.112 301.777 323.112 301.778C323.112 301.778 323.112 301.779 323.112 301.779C323.112 301.78 323.112 301.78 323.112 301.781C323.112 301.782 323.112 301.782 323.112 301.783C323.112 301.783 323.112 301.784 323.112 301.784C323.112 301.785 323.112 301.785 323.112 301.786C323.112 301.786 323.112 301.787 323.112 301.787C323.112 301.788 323.112 301.788 323.112 301.789C323.112 301.789 323.112 301.79 323.112 301.79C323.112 301.791 323.112 301.791 323.112 301.792C323.112 301.792 323.112 301.793 323.112 301.794C323.112 301.794 323.112 301.795 323.112 301.795C323.112 301.796 323.112 301.796 323.112 301.797C323.112 301.797 323.112 301.798 323.112 301.798C323.112 301.799 323.112 301.799 323.112 301.8C323.112 301.8 323.112 301.801 323.112 301.801C323.112 301.802 323.112 301.802 323.112 301.803C323.112 301.803 323.112 301.804 323.112 301.804C323.112 301.805 323.112 301.805 323.112 301.806C323.112 301.807 323.112 301.807 323.112 301.808C323.112 301.808 323.112 301.809 323.112 301.809C323.112 301.81 323.112 301.81 323.112 301.811C323.112 301.811 323.112 301.812 323.112 301.812C323.112 301.813 323.112 301.813 323.112 301.814C323.112 301.814 323.112 301.815 323.112 301.815C323.112 301.816 323.112 301.816 323.112 301.817C323.112 301.817 323.112 301.818 323.112 301.819C323.112 301.819 323.112 301.82 323.112 301.82C323.112 301.821 323.112 301.821 323.112 301.822C323.112 301.822 323.112 301.823 323.112 301.823C323.112 301.824 323.112 301.824 323.112 301.825C323.112 301.825 323.112 301.826 323.112 301.826C323.112 301.827 323.112 301.827 323.112 301.828C323.112 301.828 323.112 301.829 323.112 301.829C323.112 301.83 323.112 301.83 323.112 301.831C323.112 301.832 323.112 301.832 323.112 301.833C323.112 301.833 323.112 301.834 323.112 301.834C323.112 301.835 323.112 301.835 323.112 301.836C323.112 301.836 323.112 301.837 323.112 301.837C323.112 301.838 323.112 301.838 323.112 301.839C323.112 301.839 323.112 301.84 323.112 301.84C323.112 301.841 323.112 301.841 323.112 301.842C323.112 301.842 323.112 301.843 323.112 301.844C323.112 301.844 323.112 301.845 323.112 301.845C323.112 301.846 323.112 301.846 323.112 301.847C323.112 301.847 323.112 301.848 323.112 301.848C323.112 301.849 323.112 301.849 323.112 301.85C323.112 301.85 323.112 301.851 323.112 301.851C323.112 301.852 323.112 301.852 323.112 301.853C323.112 301.853 323.112 301.854 323.112 301.854C323.112 301.855 323.112 301.855 323.112 301.856C323.112 301.857 323.112 301.857 323.112 301.858C323.112 301.858 323.112 301.859 323.112 301.859C323.112 301.86 323.112 301.86 323.112 301.861C323.112 301.861 323.112 301.862 323.112 301.862C323.112 301.863 323.112 301.863 323.112 301.864C323.112 301.864 323.112 301.865 323.112 301.865C323.112 301.866 323.112 301.866 323.112 301.867C323.112 301.867 323.112 301.868 323.112 301.869C323.112 301.869 323.112 301.87 323.112 301.87C323.112 301.871 323.112 301.871 323.112 301.872C323.112 301.872 323.112 301.873 323.112 301.873C323.112 301.874 323.112 301.874 323.112 301.875C323.112 301.875 323.112 301.876 323.112 301.876C323.112 301.877 323.112 301.877 323.112 301.878C323.112 301.878 323.112 301.879 323.112 301.879C323.112 301.88 323.112 301.88 323.112 301.881C323.112 301.882 323.112 301.882 323.112 301.883C323.112 301.883 323.112 301.884 323.112 301.884C323.112 301.885 323.112 301.885 323.112 301.886C323.112 301.886 323.112 301.887 323.112 301.887C323.112 301.888 323.112 301.888 323.112 301.889C323.112 301.889 323.112 301.89 323.112 301.89C323.112 301.891 323.112 301.891 323.112 301.892C323.112 301.892 323.112 301.893 323.112 301.894C323.112 301.894 323.112 301.895 323.112 301.895C323.112 301.896 323.112 301.896 323.112 301.897C323.112 301.897 323.112 301.898 323.112 301.898C323.112 301.899 323.112 301.899 323.112 301.9C323.112 301.9 323.112 301.901 323.112 301.901C323.112 301.902 323.112 301.902 323.112 301.903C323.112 301.903 323.112 301.904 323.112 301.904C323.112 301.905 323.112 301.905 323.112 301.906C323.112 301.907 323.112 301.907 323.112 301.908C323.112 301.908 323.112 301.909 323.112 301.909C323.112 301.91 323.112 301.91 323.112 301.911C323.112 301.911 323.112 301.912 323.112 301.912C323.112 301.913 323.112 301.913 323.112 301.914C323.112 301.914 323.112 301.915 323.112 301.915C323.112 301.916 323.112 301.916 323.112 301.917C323.112 301.917 323.112 301.918 323.112 301.919C323.112 301.919 323.112 301.92 323.112 301.92C323.112 301.921 323.112 301.921 323.112 301.922C323.112 301.922 323.112 301.923 323.112 301.923C323.112 301.924 323.112 301.924 323.112 301.925C323.112 301.925 323.112 301.926 323.112 301.926C323.112 301.927 323.112 301.927 323.112 301.928C323.112 301.928 323.112 301.929 323.112 301.929C323.112 301.93 323.112 301.93 323.112 301.931C323.112 301.932 323.112 301.932 323.112 301.933C323.112 301.933 323.112 301.934 323.112 301.934C323.112 301.935 323.112 301.935 323.112 301.936C323.112 301.936 323.112 301.937 323.112 301.937C323.112 301.938 323.112 301.938 323.112 301.939C323.112 301.939 323.112 301.94 323.112 301.94C323.112 301.941 323.112 301.941 323.112 301.942C323.112 301.942 323.112 301.943 323.112 301.944C323.112 301.944 323.112 301.945 323.112 301.945C323.112 301.946 323.112 301.946 323.112 301.947C323.112 301.947 323.112 301.948 323.112 301.948C323.112 301.949 323.112 301.949 323.112 301.95C323.112 301.95 323.112 301.951 323.112 301.951C323.112 301.952 323.112 301.952 323.112 301.953C323.112 301.953 323.112 301.954 323.112 301.954C323.112 301.955 323.112 301.955 323.112 301.956C323.112 301.957 323.112 301.957 323.112 301.958C323.112 301.958 323.112 301.959 323.112 301.959C323.112 301.96 323.112 301.96 323.112 301.961C323.112 301.961 323.112 301.962 323.112 301.962C323.112 301.963 323.112 301.963 323.112 301.964C323.112 301.964 323.112 301.965 323.112 301.965C323.112 301.966 323.112 301.966 323.112 301.967C323.112 301.967 323.112 301.968 323.112 301.969C323.112 301.969 323.112 301.97 323.112 301.97C323.112 301.971 323.112 301.971 323.112 301.972C323.112 301.972 323.112 301.973 323.112 301.973C323.112 301.974 323.112 301.974 323.112 301.975C323.112 301.975 323.112 301.976 323.112 301.976C323.112 301.977 323.112 301.977 323.112 301.978C323.112 301.978 323.112 301.979 323.112 301.979C323.112 301.98 323.112 301.98 323.112 301.981C323.112 301.982 323.112 301.982 323.112 301.983C323.112 301.983 323.112 301.984 323.112 301.984C323.112 301.985 323.112 301.985 323.112 301.986C323.112 301.986 323.112 301.987 323.112 301.987C323.112 301.988 323.112 301.988 323.112 301.989C323.112 301.989 323.112 301.99 323.112 301.99C323.112 301.991 323.112 301.991 323.112 301.992C323.112 301.992 323.112 301.993 323.112 301.994C323.112 301.994 323.112 301.995 323.112 301.995C323.112 301.996 323.112 301.996 323.112 301.997C323.112 301.997 323.112 301.998 323.112 301.998C323.112 301.999 323.112 301.999 323.112 302C323.112 302 323.112 302.001 323.112 302.001C323.112 302.002 323.112 302.002 323.112 302.003C323.112 302.003 323.112 302.004 323.112 302.004C323.112 302.005 323.112 302.005 323.112 302.006C323.112 302.007 323.112 302.007 323.112 302.008C323.112 302.008 323.112 302.009 323.112 302.009C323.112 302.01 323.112 302.01 323.112 302.011C323.112 302.011 323.112 302.012 323.112 302.012C323.112 302.013 323.112 302.013 323.112 302.014C323.112 302.014 323.112 302.015 323.112 302.015C323.112 302.016 323.112 302.016 323.112 302.017C323.112 302.017 323.112 302.018 323.112 302.019C323.112 302.019 323.112 302.02 323.112 302.02C323.112 302.021 323.112 302.021 323.112 302.022C323.112 302.022 323.112 302.023 323.112 302.023C323.112 302.024 323.112 302.024 323.112 302.025C323.112 302.025 323.112 302.026 323.112 302.026C323.112 302.027 323.112 302.027 323.112 302.028C323.112 302.028 323.112 302.029 323.112 302.029C323.112 302.03 323.112 302.03 323.112 302.031C323.112 302.032 323.112 302.032 323.112 302.033C323.112 302.033 323.112 302.034 323.112 302.034C323.112 302.035 323.112 302.035 323.112 302.036C323.112 302.036 323.112 302.037 323.112 302.037C323.112 302.038 323.112 302.038 323.112 302.039C323.112 302.039 323.112 302.04 323.112 302.04C323.112 302.041 323.112 302.041 323.112 302.042C323.112 302.042 323.112 302.043 323.112 302.044C323.112 302.044 323.112 302.045 323.112 302.045C323.112 302.046 323.112 302.046 323.112 302.047C323.112 302.047 323.112 302.048 323.112 302.048C323.112 302.049 323.112 302.049 323.112 302.05C323.112 302.05 323.112 302.051 323.112 302.051C323.112 302.052 323.112 302.052 323.112 302.053C323.112 302.053 323.112 302.054 323.112 302.054C323.112 302.055 323.112 302.055 323.112 302.056C323.112 302.057 323.112 302.057 323.112 302.058C323.112 302.058 323.112 302.059 323.112 302.059C323.112 302.06 323.112 302.06 323.112 302.061C323.112 302.061 323.112 302.062 323.112 302.062C323.112 302.063 323.112 302.063 323.112 302.064C323.112 302.064 323.112 302.065 323.112 302.065C323.112 302.066 323.112 302.066 323.112 302.067C323.112 302.067 323.112 302.068 323.112 302.069C323.112 302.069 323.112 302.07 323.112 302.07C323.112 302.071 323.112 302.071 323.112 302.072C323.112 302.072 323.112 302.073 323.112 302.073C323.112 302.074 323.112 302.074 323.112 302.075C323.112 302.075 323.112 302.076 323.112 302.076C323.112 302.077 323.112 302.077 323.112 302.078C323.112 302.078 323.112 302.079 323.112 302.079C323.112 302.08 323.112 302.08 323.112 302.081C323.112 302.082 323.112 302.082 323.112 302.083C323.112 302.083 323.112 302.084 323.112 302.084C323.112 302.085 323.112 302.085 323.112 302.086C323.112 302.086 323.112 302.087 323.112 302.087C323.112 302.088 323.112 302.088 323.112 302.089C323.112 302.089 323.112 302.09 323.112 302.09C323.112 302.091 323.112 302.091 323.112 302.092C323.112 302.092 323.112 302.093 323.112 302.094C323.112 302.094 323.112 302.095 323.112 302.095C323.112 302.096 323.112 302.096 323.112 302.097C323.112 302.097 323.112 302.098 323.112 302.098C323.112 302.099 323.112 302.099 323.112 302.1C323.112 302.1 323.112 302.101 323.112 302.101C323.112 302.102 323.112 302.102 323.112 302.103C323.112 302.103 323.112 302.104 323.112 302.104C323.112 302.105 323.112 302.105 323.112 302.106C323.112 302.107 323.112 302.107 323.112 302.108C323.112 302.108 323.112 302.109 323.112 302.109C323.112 302.11 323.112 302.11 323.112 302.111C323.112 302.111 323.112 302.112 323.112 302.112C323.112 302.113 323.112 302.113 323.112 302.114C323.112 302.114 323.112 302.115 323.112 302.115C323.112 302.116 323.112 302.116 323.112 302.117C323.112 302.117 323.112 302.118 323.112 302.119C323.112 302.119 323.112 302.12 323.112 302.12C323.112 302.121 323.112 302.121 323.112 302.122C323.112 302.122 323.112 302.123 323.112 302.123C323.112 302.124 323.112 302.124 323.112 302.125C323.112 302.125 323.112 302.126 323.112 302.126C323.112 302.127 323.112 302.127 323.112 302.128C323.112 302.128 323.112 302.129 323.112 302.129C323.112 302.13 323.112 302.13 323.112 302.131C323.112 302.132 323.112 302.132 323.112 302.133C323.112 302.133 323.112 302.134 323.112 302.134C323.112 302.135 323.112 302.135 323.112 302.136C323.112 302.136 323.112 302.137 323.112 302.137C323.112 302.138 323.112 302.138 323.112 302.139C323.112 302.139 323.112 302.14 323.112 302.14C323.112 302.141 323.112 302.141 323.112 302.142C323.112 302.142 323.112 302.143 323.112 302.144C323.112 302.144 323.112 302.145 323.112 302.145C323.112 302.146 323.112 302.146 323.112 302.147C323.112 302.147 323.112 302.148 323.112 302.148C323.112 302.149 323.112 302.149 323.112 302.15C323.112 302.15 323.112 302.151 323.112 302.151C323.112 302.152 323.112 302.152 323.112 302.153C323.112 302.153 323.112 302.154 323.112 302.154C323.112 302.155 323.112 302.155 323.112 302.156C323.112 302.157 323.112 302.157 323.112 302.158C323.112 302.158 323.112 302.159 323.112 302.159C323.112 302.16 323.112 302.16 323.112 302.161C323.112 302.161 323.112 302.162 323.112 302.162C323.112 302.163 323.112 302.163 323.112 302.164C323.112 302.164 323.112 302.165 323.112 302.165C323.112 302.166 323.112 302.166 323.112 302.167C323.112 302.167 323.112 302.168 323.112 302.169C323.112 302.169 323.112 302.17 323.112 302.17C323.112 302.171 323.112 302.171 323.112 302.172C323.112 302.172 323.112 302.173 323.112 302.173C323.112 302.174 323.112 302.174 323.112 302.175C323.112 302.175 323.112 302.176 323.112 302.176C323.112 302.177 323.112 302.177 323.112 302.178C323.112 302.178 323.112 302.179 323.112 302.179C323.112 302.18 323.112 302.18 323.112 302.181C323.112 302.182 323.112 302.182 323.112 302.183C323.112 302.183 323.112 302.184 323.112 302.184C323.112 302.185 323.112 302.185 323.112 302.186C323.112 302.186 323.112 302.187 323.112 302.187C323.112 302.188 323.112 302.188 323.112 302.189C323.112 302.189 323.112 302.19 323.112 302.19C323.112 302.191 323.112 302.191 323.112 302.192C323.112 302.192 323.112 302.193 323.112 302.194C323.112 302.194 323.112 302.195 323.112 302.195C323.112 302.196 323.112 302.196 323.112 302.197C323.112 302.197 323.112 302.198 323.112 302.198C323.112 302.199 323.112 302.199 323.112 302.2C323.112 302.2 323.112 302.201 323.112 302.201C323.112 302.202 323.112 302.202 323.112 302.203C323.112 302.203 323.112 302.204 323.112 302.204C323.112 302.205 323.112 302.205 323.112 302.206C323.112 302.207 323.112 302.207 323.112 302.208C323.112 302.208 323.112 302.209 323.112 302.209C323.112 302.21 323.112 302.21 323.112 302.211C323.112 302.211 323.112 302.212 323.112 302.212C323.112 302.213 323.112 302.213 323.112 302.214C323.112 302.214 323.112 302.215 323.112 302.215C323.112 302.216 323.112 302.216 323.112 302.217C323.112 302.217 323.112 302.218 323.112 302.219C323.112 302.219 323.112 302.22 323.112 302.22C323.112 302.221 323.112 302.221 323.112 302.222C323.112 302.222 323.112 302.223 323.112 302.223C323.112 302.224 323.112 302.224 323.112 302.225C323.112 302.225 323.112 302.226 323.112 302.226C323.112 302.227 323.112 302.227 323.112 302.228C323.112 302.228 323.112 302.229 323.112 302.229C323.112 302.23 323.112 302.23 323.112 302.231C323.112 302.232 323.112 302.232 323.112 302.233C323.112 302.233 323.112 302.234 323.112 302.234C323.112 302.235 323.112 302.235 323.112 302.236C323.112 302.236 323.112 302.237 323.112 302.237C323.112 302.238 323.112 302.238 323.112 302.239C323.112 302.239 323.112 302.24 323.112 302.24C323.112 302.241 323.112 302.241 323.112 302.242C323.112 302.242 323.112 302.243 323.112 302.244C323.112 302.244 323.112 302.245 323.112 302.245C323.112 302.246 323.112 302.246 323.112 302.247C323.112 302.247 323.112 302.248 323.112 302.248C323.112 302.249 323.112 302.249 323.112 302.25C323.112 302.25 323.112 302.251 323.112 302.251C323.112 302.252 323.112 302.252 323.112 302.253C323.112 302.253 323.112 302.254 323.112 302.254C323.112 302.255 323.112 302.255 323.112 302.256C323.112 302.257 323.112 302.257 323.112 302.258C323.112 302.258 323.112 302.259 323.112 302.259C323.112 302.26 323.112 302.26 323.112 302.261C323.112 302.261 323.112 302.262 323.112 302.262C323.112 302.263 323.112 302.263 323.112 302.264C323.112 302.264 323.112 302.265 323.112 302.265C323.112 302.266 323.112 302.266 323.112 302.267C323.112 302.267 323.112 302.268 323.112 302.269C323.112 302.269 323.112 302.27 323.112 302.27C323.112 302.271 323.112 302.271 323.112 302.272C323.112 302.272 323.112 302.273 323.112 302.273C323.112 302.274 323.112 302.274 323.112 302.275C323.112 302.275 323.112 302.276 323.112 302.276C323.112 302.277 323.112 302.277 323.112 302.278C323.112 302.278 323.112 302.279 323.112 302.279C323.112 302.28 323.112 302.28 323.112 302.281C323.112 302.282 323.112 302.282 323.112 302.283C323.112 302.283 323.112 302.284 323.112 302.284C323.112 302.285 323.112 302.285 323.112 302.286C323.112 302.286 323.112 302.287 323.112 302.287C323.112 302.288 323.112 302.288 323.112 302.289C323.112 302.289 323.112 302.29 323.112 302.29C323.112 302.291 323.112 302.291 323.112 302.292C323.112 302.292 323.112 302.293 323.112 302.294C323.112 302.294 323.112 302.295 323.112 302.295C323.112 302.296 323.112 302.296 323.112 302.297C323.112 302.297 323.112 302.298 323.112 302.298C323.112 302.299 323.112 302.299 323.112 302.3C323.112 302.3 323.112 302.301 323.112 302.301C323.112 302.302 323.112 302.302 323.112 302.303C323.112 302.303 323.112 302.304 323.112 302.304C323.112 302.305 323.112 302.305 323.112 302.306C323.112 302.307 323.112 302.307 323.112 302.308C323.112 302.308 323.112 302.309 323.112 302.309H324.112H325.112C325.112 302.309 325.112 302.308 325.112 302.308C325.112 302.307 325.112 302.307 325.112 302.306C325.112 302.305 325.112 302.305 325.112 302.304C325.112 302.304 325.112 302.303 325.112 302.303C325.112 302.302 325.112 302.302 325.112 302.301C325.112 302.301 325.112 302.3 325.112 302.3C325.112 302.299 325.112 302.299 325.112 302.298C325.112 302.298 325.112 302.297 325.112 302.297C325.112 302.296 325.112 302.296 325.112 302.295C325.112 302.295 325.112 302.294 325.112 302.294C325.112 302.293 325.112 302.292 325.112 302.292C325.112 302.291 325.112 302.291 325.112 302.29C325.112 302.29 325.112 302.289 325.112 302.289C325.112 302.288 325.112 302.288 325.112 302.287C325.112 302.287 325.112 302.286 325.112 302.286C325.112 302.285 325.112 302.285 325.112 302.284C325.112 302.284 325.112 302.283 325.112 302.283C325.112 302.282 325.112 302.282 325.112 302.281C325.112 302.28 325.112 302.28 325.112 302.279C325.112 302.279 325.112 302.278 325.112 302.278C325.112 302.277 325.112 302.277 325.112 302.276C325.112 302.276 325.112 302.275 325.112 302.275C325.112 302.274 325.112 302.274 325.112 302.273C325.112 302.273 325.112 302.272 325.112 302.272C325.112 302.271 325.112 302.271 325.112 302.27C325.112 302.27 325.112 302.269 325.112 302.269C325.112 302.268 325.112 302.267 325.112 302.267C325.112 302.266 325.112 302.266 325.112 302.265C325.112 302.265 325.112 302.264 325.112 302.264C325.112 302.263 325.112 302.263 325.112 302.262C325.112 302.262 325.112 302.261 325.112 302.261C325.112 302.26 325.112 302.26 325.112 302.259C325.112 302.259 325.112 302.258 325.112 302.258C325.112 302.257 325.112 302.257 325.112 302.256C325.112 302.255 325.112 302.255 325.112 302.254C325.112 302.254 325.112 302.253 325.112 302.253C325.112 302.252 325.112 302.252 325.112 302.251C325.112 302.251 325.112 302.25 325.112 302.25C325.112 302.249 325.112 302.249 325.112 302.248C325.112 302.248 325.112 302.247 325.112 302.247C325.112 302.246 325.112 302.246 325.112 302.245C325.112 302.245 325.112 302.244 325.112 302.244C325.112 302.243 325.112 302.242 325.112 302.242C325.112 302.241 325.112 302.241 325.112 302.24C325.112 302.24 325.112 302.239 325.112 302.239C325.112 302.238 325.112 302.238 325.112 302.237C325.112 302.237 325.112 302.236 325.112 302.236C325.112 302.235 325.112 302.235 325.112 302.234C325.112 302.234 325.112 302.233 325.112 302.233C325.112 302.232 325.112 302.232 325.112 302.231C325.112 302.23 325.112 302.23 325.112 302.229C325.112 302.229 325.112 302.228 325.112 302.228C325.112 302.227 325.112 302.227 325.112 302.226C325.112 302.226 325.112 302.225 325.112 302.225C325.112 302.224 325.112 302.224 325.112 302.223C325.112 302.223 325.112 302.222 325.112 302.222C325.112 302.221 325.112 302.221 325.112 302.22C325.112 302.22 325.112 302.219 325.112 302.219C325.112 302.218 325.112 302.217 325.112 302.217C325.112 302.216 325.112 302.216 325.112 302.215C325.112 302.215 325.112 302.214 325.112 302.214C325.112 302.213 325.112 302.213 325.112 302.212C325.112 302.212 325.112 302.211 325.112 302.211C325.112 302.21 325.112 302.21 325.112 302.209C325.112 302.209 325.112 302.208 325.112 302.208C325.112 302.207 325.112 302.207 325.112 302.206C325.112 302.205 325.112 302.205 325.112 302.204C325.112 302.204 325.112 302.203 325.112 302.203C325.112 302.202 325.112 302.202 325.112 302.201C325.112 302.201 325.112 302.2 325.112 302.2C325.112 302.199 325.112 302.199 325.112 302.198C325.112 302.198 325.112 302.197 325.112 302.197C325.112 302.196 325.112 302.196 325.112 302.195C325.112 302.195 325.112 302.194 325.112 302.194C325.112 302.193 325.112 302.192 325.112 302.192C325.112 302.191 325.112 302.191 325.112 302.19C325.112 302.19 325.112 302.189 325.112 302.189C325.112 302.188 325.112 302.188 325.112 302.187C325.112 302.187 325.112 302.186 325.112 302.186C325.112 302.185 325.112 302.185 325.112 302.184C325.112 302.184 325.112 302.183 325.112 302.183C325.112 302.182 325.112 302.182 325.112 302.181C325.112 302.18 325.112 302.18 325.112 302.179C325.112 302.179 325.112 302.178 325.112 302.178C325.112 302.177 325.112 302.177 325.112 302.176C325.112 302.176 325.112 302.175 325.112 302.175C325.112 302.174 325.112 302.174 325.112 302.173C325.112 302.173 325.112 302.172 325.112 302.172C325.112 302.171 325.112 302.171 325.112 302.17C325.112 302.17 325.112 302.169 325.112 302.169C325.112 302.168 325.112 302.167 325.112 302.167C325.112 302.166 325.112 302.166 325.112 302.165C325.112 302.165 325.112 302.164 325.112 302.164C325.112 302.163 325.112 302.163 325.112 302.162C325.112 302.162 325.112 302.161 325.112 302.161C325.112 302.16 325.112 302.16 325.112 302.159C325.112 302.159 325.112 302.158 325.112 302.158C325.112 302.157 325.112 302.157 325.112 302.156C325.112 302.155 325.112 302.155 325.112 302.154C325.112 302.154 325.112 302.153 325.112 302.153C325.112 302.152 325.112 302.152 325.112 302.151C325.112 302.151 325.112 302.15 325.112 302.15C325.112 302.149 325.112 302.149 325.112 302.148C325.112 302.148 325.112 302.147 325.112 302.147C325.112 302.146 325.112 302.146 325.112 302.145C325.112 302.145 325.112 302.144 325.112 302.144C325.112 302.143 325.112 302.142 325.112 302.142C325.112 302.141 325.112 302.141 325.112 302.14C325.112 302.14 325.112 302.139 325.112 302.139C325.112 302.138 325.112 302.138 325.112 302.137C325.112 302.137 325.112 302.136 325.112 302.136C325.112 302.135 325.112 302.135 325.112 302.134C325.112 302.134 325.112 302.133 325.112 302.133C325.112 302.132 325.112 302.132 325.112 302.131C325.112 302.13 325.112 302.13 325.112 302.129C325.112 302.129 325.112 302.128 325.112 302.128C325.112 302.127 325.112 302.127 325.112 302.126C325.112 302.126 325.112 302.125 325.112 302.125C325.112 302.124 325.112 302.124 325.112 302.123C325.112 302.123 325.112 302.122 325.112 302.122C325.112 302.121 325.112 302.121 325.112 302.12C325.112 302.12 325.112 302.119 325.112 302.119C325.112 302.118 325.112 302.117 325.112 302.117C325.112 302.116 325.112 302.116 325.112 302.115C325.112 302.115 325.112 302.114 325.112 302.114C325.112 302.113 325.112 302.113 325.112 302.112C325.112 302.112 325.112 302.111 325.112 302.111C325.112 302.11 325.112 302.11 325.112 302.109C325.112 302.109 325.112 302.108 325.112 302.108C325.112 302.107 325.112 302.107 325.112 302.106C325.112 302.105 325.112 302.105 325.112 302.104C325.112 302.104 325.112 302.103 325.112 302.103C325.112 302.102 325.112 302.102 325.112 302.101C325.112 302.101 325.112 302.1 325.112 302.1C325.112 302.099 325.112 302.099 325.112 302.098C325.112 302.098 325.112 302.097 325.112 302.097C325.112 302.096 325.112 302.096 325.112 302.095C325.112 302.095 325.112 302.094 325.112 302.094C325.112 302.093 325.112 302.092 325.112 302.092C325.112 302.091 325.112 302.091 325.112 302.09C325.112 302.09 325.112 302.089 325.112 302.089C325.112 302.088 325.112 302.088 325.112 302.087C325.112 302.087 325.112 302.086 325.112 302.086C325.112 302.085 325.112 302.085 325.112 302.084C325.112 302.084 325.112 302.083 325.112 302.083C325.112 302.082 325.112 302.082 325.112 302.081C325.112 302.08 325.112 302.08 325.112 302.079C325.112 302.079 325.112 302.078 325.112 302.078C325.112 302.077 325.112 302.077 325.112 302.076C325.112 302.076 325.112 302.075 325.112 302.075C325.112 302.074 325.112 302.074 325.112 302.073C325.112 302.073 325.112 302.072 325.112 302.072C325.112 302.071 325.112 302.071 325.112 302.07C325.112 302.07 325.112 302.069 325.112 302.069C325.112 302.068 325.112 302.067 325.112 302.067C325.112 302.066 325.112 302.066 325.112 302.065C325.112 302.065 325.112 302.064 325.112 302.064C325.112 302.063 325.112 302.063 325.112 302.062C325.112 302.062 325.112 302.061 325.112 302.061C325.112 302.06 325.112 302.06 325.112 302.059C325.112 302.059 325.112 302.058 325.112 302.058C325.112 302.057 325.112 302.057 325.112 302.056C325.112 302.055 325.112 302.055 325.112 302.054C325.112 302.054 325.112 302.053 325.112 302.053C325.112 302.052 325.112 302.052 325.112 302.051C325.112 302.051 325.112 302.05 325.112 302.05C325.112 302.049 325.112 302.049 325.112 302.048C325.112 302.048 325.112 302.047 325.112 302.047C325.112 302.046 325.112 302.046 325.112 302.045C325.112 302.045 325.112 302.044 325.112 302.044C325.112 302.043 325.112 302.042 325.112 302.042C325.112 302.041 325.112 302.041 325.112 302.04C325.112 302.04 325.112 302.039 325.112 302.039C325.112 302.038 325.112 302.038 325.112 302.037C325.112 302.037 325.112 302.036 325.112 302.036C325.112 302.035 325.112 302.035 325.112 302.034C325.112 302.034 325.112 302.033 325.112 302.033C325.112 302.032 325.112 302.032 325.112 302.031C325.112 302.03 325.112 302.03 325.112 302.029C325.112 302.029 325.112 302.028 325.112 302.028C325.112 302.027 325.112 302.027 325.112 302.026C325.112 302.026 325.112 302.025 325.112 302.025C325.112 302.024 325.112 302.024 325.112 302.023C325.112 302.023 325.112 302.022 325.112 302.022C325.112 302.021 325.112 302.021 325.112 302.02C325.112 302.02 325.112 302.019 325.112 302.019C325.112 302.018 325.112 302.017 325.112 302.017C325.112 302.016 325.112 302.016 325.112 302.015C325.112 302.015 325.112 302.014 325.112 302.014C325.112 302.013 325.112 302.013 325.112 302.012C325.112 302.012 325.112 302.011 325.112 302.011C325.112 302.01 325.112 302.01 325.112 302.009C325.112 302.009 325.112 302.008 325.112 302.008C325.112 302.007 325.112 302.007 325.112 302.006C325.112 302.005 325.112 302.005 325.112 302.004C325.112 302.004 325.112 302.003 325.112 302.003C325.112 302.002 325.112 302.002 325.112 302.001C325.112 302.001 325.112 302 325.112 302C325.112 301.999 325.112 301.999 325.112 301.998C325.112 301.998 325.112 301.997 325.112 301.997C325.112 301.996 325.112 301.996 325.112 301.995C325.112 301.995 325.112 301.994 325.112 301.994C325.112 301.993 325.112 301.992 325.112 301.992C325.112 301.991 325.112 301.991 325.112 301.99C325.112 301.99 325.112 301.989 325.112 301.989C325.112 301.988 325.112 301.988 325.112 301.987C325.112 301.987 325.112 301.986 325.112 301.986C325.112 301.985 325.112 301.985 325.112 301.984C325.112 301.984 325.112 301.983 325.112 301.983C325.112 301.982 325.112 301.982 325.112 301.981C325.112 301.98 325.112 301.98 325.112 301.979C325.112 301.979 325.112 301.978 325.112 301.978C325.112 301.977 325.112 301.977 325.112 301.976C325.112 301.976 325.112 301.975 325.112 301.975C325.112 301.974 325.112 301.974 325.112 301.973C325.112 301.973 325.112 301.972 325.112 301.972C325.112 301.971 325.112 301.971 325.112 301.97C325.112 301.97 325.112 301.969 325.112 301.969C325.112 301.968 325.112 301.967 325.112 301.967C325.112 301.966 325.112 301.966 325.112 301.965C325.112 301.965 325.112 301.964 325.112 301.964C325.112 301.963 325.112 301.963 325.112 301.962C325.112 301.962 325.112 301.961 325.112 301.961C325.112 301.96 325.112 301.96 325.112 301.959C325.112 301.959 325.112 301.958 325.112 301.958C325.112 301.957 325.112 301.957 325.112 301.956C325.112 301.955 325.112 301.955 325.112 301.954C325.112 301.954 325.112 301.953 325.112 301.953C325.112 301.952 325.112 301.952 325.112 301.951C325.112 301.951 325.112 301.95 325.112 301.95C325.112 301.949 325.112 301.949 325.112 301.948C325.112 301.948 325.112 301.947 325.112 301.947C325.112 301.946 325.112 301.946 325.112 301.945C325.112 301.945 325.112 301.944 325.112 301.944C325.112 301.943 325.112 301.942 325.112 301.942C325.112 301.941 325.112 301.941 325.112 301.94C325.112 301.94 325.112 301.939 325.112 301.939C325.112 301.938 325.112 301.938 325.112 301.937C325.112 301.937 325.112 301.936 325.112 301.936C325.112 301.935 325.112 301.935 325.112 301.934C325.112 301.934 325.112 301.933 325.112 301.933C325.112 301.932 325.112 301.932 325.112 301.931C325.112 301.93 325.112 301.93 325.112 301.929C325.112 301.929 325.112 301.928 325.112 301.928C325.112 301.927 325.112 301.927 325.112 301.926C325.112 301.926 325.112 301.925 325.112 301.925C325.112 301.924 325.112 301.924 325.112 301.923C325.112 301.923 325.112 301.922 325.112 301.922C325.112 301.921 325.112 301.921 325.112 301.92C325.112 301.92 325.112 301.919 325.112 301.919C325.112 301.918 325.112 301.917 325.112 301.917C325.112 301.916 325.112 301.916 325.112 301.915C325.112 301.915 325.112 301.914 325.112 301.914C325.112 301.913 325.112 301.913 325.112 301.912C325.112 301.912 325.112 301.911 325.112 301.911C325.112 301.91 325.112 301.91 325.112 301.909C325.112 301.909 325.112 301.908 325.112 301.908C325.112 301.907 325.112 301.907 325.112 301.906C325.112 301.905 325.112 301.905 325.112 301.904C325.112 301.904 325.112 301.903 325.112 301.903C325.112 301.902 325.112 301.902 325.112 301.901C325.112 301.901 325.112 301.9 325.112 301.9C325.112 301.899 325.112 301.899 325.112 301.898C325.112 301.898 325.112 301.897 325.112 301.897C325.112 301.896 325.112 301.896 325.112 301.895C325.112 301.895 325.112 301.894 325.112 301.894C325.112 301.893 325.112 301.892 325.112 301.892C325.112 301.891 325.112 301.891 325.112 301.89C325.112 301.89 325.112 301.889 325.112 301.889C325.112 301.888 325.112 301.888 325.112 301.887C325.112 301.887 325.112 301.886 325.112 301.886C325.112 301.885 325.112 301.885 325.112 301.884C325.112 301.884 325.112 301.883 325.112 301.883C325.112 301.882 325.112 301.882 325.112 301.881C325.112 301.88 325.112 301.88 325.112 301.879C325.112 301.879 325.112 301.878 325.112 301.878C325.112 301.877 325.112 301.877 325.112 301.876C325.112 301.876 325.112 301.875 325.112 301.875C325.112 301.874 325.112 301.874 325.112 301.873C325.112 301.873 325.112 301.872 325.112 301.872C325.112 301.871 325.112 301.871 325.112 301.87C325.112 301.87 325.112 301.869 325.112 301.869C325.112 301.868 325.112 301.867 325.112 301.867C325.112 301.866 325.112 301.866 325.112 301.865C325.112 301.865 325.112 301.864 325.112 301.864C325.112 301.863 325.112 301.863 325.112 301.862C325.112 301.862 325.112 301.861 325.112 301.861C325.112 301.86 325.112 301.86 325.112 301.859C325.112 301.859 325.112 301.858 325.112 301.858C325.112 301.857 325.112 301.857 325.112 301.856C325.112 301.855 325.112 301.855 325.112 301.854C325.112 301.854 325.112 301.853 325.112 301.853C325.112 301.852 325.112 301.852 325.112 301.851C325.112 301.851 325.112 301.85 325.112 301.85C325.112 301.849 325.112 301.849 325.112 301.848C325.112 301.848 325.112 301.847 325.112 301.847C325.112 301.846 325.112 301.846 325.112 301.845C325.112 301.845 325.112 301.844 325.112 301.844C325.112 301.843 325.112 301.842 325.112 301.842C325.112 301.841 325.112 301.841 325.112 301.84C325.112 301.84 325.112 301.839 325.112 301.839C325.112 301.838 325.112 301.838 325.112 301.837C325.112 301.837 325.112 301.836 325.112 301.836C325.112 301.835 325.112 301.835 325.112 301.834C325.112 301.834 325.112 301.833 325.112 301.833C325.112 301.832 325.112 301.832 325.112 301.831C325.112 301.83 325.112 301.83 325.112 301.829C325.112 301.829 325.112 301.828 325.112 301.828C325.112 301.827 325.112 301.827 325.112 301.826C325.112 301.826 325.112 301.825 325.112 301.825C325.112 301.824 325.112 301.824 325.112 301.823C325.112 301.823 325.112 301.822 325.112 301.822C325.112 301.821 325.112 301.821 325.112 301.82C325.112 301.82 325.112 301.819 325.112 301.819C325.112 301.818 325.112 301.817 325.112 301.817C325.112 301.816 325.112 301.816 325.112 301.815C325.112 301.815 325.112 301.814 325.112 301.814C325.112 301.813 325.112 301.813 325.112 301.812C325.112 301.812 325.112 301.811 325.112 301.811C325.112 301.81 325.112 301.81 325.112 301.809C325.112 301.809 325.112 301.808 325.112 301.808C325.112 301.807 325.112 301.807 325.112 301.806C325.112 301.805 325.112 301.805 325.112 301.804C325.112 301.804 325.112 301.803 325.112 301.803C325.112 301.802 325.112 301.802 325.112 301.801C325.112 301.801 325.112 301.8 325.112 301.8C325.112 301.799 325.112 301.799 325.112 301.798C325.112 301.798 325.112 301.797 325.112 301.797C325.112 301.796 325.112 301.796 325.112 301.795C325.112 301.795 325.112 301.794 325.112 301.794C325.112 301.793 325.112 301.792 325.112 301.792C325.112 301.791 325.112 301.791 325.112 301.79C325.112 301.79 325.112 301.789 325.112 301.789C325.112 301.788 325.112 301.788 325.112 301.787C325.112 301.787 325.112 301.786 325.112 301.786C325.112 301.785 325.112 301.785 325.112 301.784C325.112 301.784 325.112 301.783 325.112 301.783C325.112 301.782 325.112 301.782 325.112 301.781C325.112 301.78 325.112 301.78 325.112 301.779C325.112 301.779 325.112 301.778 325.112 301.778C325.112 301.777 325.112 301.777 325.112 301.776C325.112 301.776 325.112 301.775 325.112 301.775C325.112 301.774 325.112 301.774 325.112 301.773C325.112 301.773 325.112 301.772 325.112 301.772C325.112 301.771 325.112 301.771 325.112 301.77C325.112 301.77 325.112 301.769 325.112 301.769C325.112 301.768 325.112 301.767 325.112 301.767C325.112 301.766 325.112 301.766 325.112 301.765C325.112 301.765 325.112 301.764 325.112 301.764C325.112 301.763 325.112 301.763 325.112 301.762C325.112 301.762 325.112 301.761 325.112 301.761C325.112 301.76 325.112 301.76 325.112 301.759C325.112 301.759 325.112 301.758 325.112 301.758C325.112 301.757 325.112 301.757 325.112 301.756C325.112 301.755 325.112 301.755 325.112 301.754C325.112 301.754 325.112 301.753 325.112 301.753C325.112 301.752 325.112 301.752 325.112 301.751C325.112 301.751 325.112 301.75 325.112 301.75C325.112 301.749 325.112 301.749 325.112 301.748C325.112 301.748 325.112 301.747 325.112 301.747C325.112 301.746 325.112 301.746 325.112 301.745C325.112 301.745 325.112 301.744 325.112 301.744C325.112 301.743 325.112 301.742 325.112 301.742C325.112 301.741 325.112 301.741 325.112 301.74C325.112 301.74 325.112 301.739 325.112 301.739C325.112 301.738 325.112 301.738 325.112 301.737C325.112 301.737 325.112 301.736 325.112 301.736C325.112 301.735 325.112 301.735 325.112 301.734C325.112 301.734 325.112 301.733 325.112 301.733C325.112 301.732 325.112 301.732 325.112 301.731C325.112 301.73 325.112 301.73 325.112 301.729C325.112 301.729 325.112 301.728 325.112 301.728C325.112 301.727 325.112 301.727 325.112 301.726C325.112 301.726 325.112 301.725 325.112 301.725C325.112 301.724 325.112 301.724 325.112 301.723C325.112 301.723 325.112 301.722 325.112 301.722C325.112 301.721 325.112 301.721 325.112 301.72C325.112 301.72 325.112 301.719 325.112 301.719C325.112 301.718 325.112 301.717 325.112 301.717C325.112 301.716 325.112 301.716 325.112 301.715C325.112 301.715 325.112 301.714 325.112 301.714C325.112 301.713 325.112 301.713 325.112 301.712C325.112 301.712 325.112 301.711 325.112 301.711C325.112 301.71 325.112 301.71 325.112 301.709C325.112 301.709 325.112 301.708 325.112 301.708C325.112 301.707 325.112 301.707 325.112 301.706C325.112 301.705 325.112 301.705 325.112 301.704C325.112 301.704 325.112 301.703 325.112 301.703C325.112 301.702 325.112 301.702 325.112 301.701C325.112 301.701 325.112 301.7 325.112 301.7C325.112 301.699 325.112 301.699 325.112 301.698C325.112 301.698 325.112 301.697 325.112 301.697C325.112 301.696 325.112 301.696 325.112 301.695C325.112 301.695 325.112 301.694 325.112 301.694C325.112 301.693 325.112 301.692 325.112 301.692C325.112 301.691 325.112 301.691 325.112 301.69C325.112 301.69 325.112 301.689 325.112 301.689C325.112 301.688 325.112 301.688 325.112 301.687C325.112 301.687 325.112 301.686 325.112 301.686C325.112 301.685 325.112 301.685 325.112 301.684C325.112 301.684 325.112 301.683 325.112 301.683C325.112 301.682 325.112 301.682 325.112 301.681C325.112 301.68 325.112 301.68 325.112 301.679C325.112 301.679 325.112 301.678 325.112 301.678C325.112 301.677 325.112 301.677 325.112 301.676C325.112 301.676 325.112 301.675 325.112 301.675C325.112 301.674 325.112 301.674 325.112 301.673C325.112 301.673 325.112 301.672 325.112 301.672C325.112 301.671 325.112 301.671 325.112 301.67C325.112 301.67 325.112 301.669 325.112 301.669C325.112 301.668 325.112 301.667 325.112 301.667C325.112 301.666 325.112 301.666 325.112 301.665C325.112 301.665 325.112 301.664 325.112 301.664C325.112 301.663 325.112 301.663 325.112 301.662C325.112 301.662 325.112 301.661 325.112 301.661C325.112 301.66 325.112 301.66 325.112 301.659C325.112 301.659 325.112 301.658 325.112 301.658C325.112 301.657 325.112 301.657 325.112 301.656C325.112 301.655 325.112 301.655 325.112 301.654C325.112 301.654 325.112 301.653 325.112 301.653C325.112 301.652 325.112 301.652 325.112 301.651C325.112 301.651 325.112 301.65 325.112 301.65C325.112 301.649 325.112 301.649 325.112 301.648C325.112 301.648 325.112 301.647 325.112 301.647C325.112 301.646 325.112 301.646 325.112 301.645C325.112 301.645 325.112 301.644 325.112 301.644C325.112 301.643 325.112 301.642 325.112 301.642C325.112 301.641 325.112 301.641 325.112 301.64C325.112 301.64 325.112 301.639 325.112 301.639C325.112 301.638 325.112 301.638 325.112 301.637C325.112 301.637 325.112 301.636 325.112 301.636C325.112 301.635 325.112 301.635 325.112 301.634C325.112 301.634 325.112 301.633 325.112 301.633C325.112 301.632 325.112 301.632 325.112 301.631C325.112 301.63 325.112 301.63 325.112 301.629C325.112 301.629 325.112 301.628 325.112 301.628C325.112 301.627 325.112 301.627 325.112 301.626C325.112 301.626 325.112 301.625 325.112 301.625C325.112 301.624 325.112 301.624 325.112 301.623C325.112 301.623 325.112 301.622 325.112 301.622C325.112 301.621 325.112 301.621 325.112 301.62C325.112 301.62 325.112 301.619 325.112 301.619C325.112 301.618 325.112 301.617 325.112 301.617C325.112 301.616 325.112 301.616 325.112 301.615C325.112 301.615 325.112 301.614 325.112 301.614C325.112 301.613 325.112 301.613 325.112 301.612C325.112 301.612 325.112 301.611 325.112 301.611C325.112 301.61 325.112 301.61 325.112 301.609C325.112 301.609 325.112 301.608 325.112 301.608C325.112 301.607 325.112 301.607 325.112 301.606C325.112 301.605 325.112 301.605 325.112 301.604C325.112 301.604 325.112 301.603 325.112 301.603C325.112 301.602 325.112 301.602 325.112 301.601C325.112 301.601 325.112 301.6 325.112 301.6C325.112 301.599 325.112 301.599 325.112 301.598C325.112 301.598 325.112 301.597 325.112 301.597C325.112 301.596 325.112 301.596 325.112 301.595C325.112 301.595 325.112 301.594 325.112 301.594C325.112 301.593 325.112 301.592 325.112 301.592C325.112 301.591 325.112 301.591 325.112 301.59C325.112 301.59 325.112 301.589 325.112 301.589C325.112 301.588 325.112 301.588 325.112 301.587C325.112 301.587 325.112 301.586 325.112 301.586C325.112 301.585 325.112 301.585 325.112 301.584C325.112 301.584 325.112 301.583 325.112 301.583C325.112 301.582 325.112 301.582 325.112 301.581C325.112 301.58 325.112 301.58 325.112 301.579C325.112 301.579 325.112 301.578 325.112 301.578C325.112 301.577 325.112 301.577 325.112 301.576C325.112 301.576 325.112 301.575 325.112 301.575C325.112 301.574 325.112 301.574 325.112 301.573C325.112 301.573 325.112 301.572 325.112 301.572C325.112 301.571 325.112 301.571 325.112 301.57C325.112 301.57 325.112 301.569 325.112 301.569C325.112 301.568 325.112 301.567 325.112 301.567C325.112 301.566 325.112 301.566 325.112 301.565C325.112 301.565 325.112 301.564 325.112 301.564C325.112 301.563 325.112 301.563 325.112 301.562C325.112 301.562 325.112 301.561 325.112 301.561C325.112 301.56 325.112 301.56 325.112 301.559C325.112 301.559 325.112 301.558 325.112 301.558C325.112 301.557 325.112 301.557 325.112 301.556C325.112 301.555 325.112 301.555 325.112 301.554C325.112 301.554 325.112 301.553 325.112 301.553C325.112 301.552 325.112 301.552 325.112 301.551C325.112 301.551 325.112 301.55 325.112 301.55C325.112 301.549 325.112 301.549 325.112 301.548C325.112 301.548 325.112 301.547 325.112 301.547C325.112 301.546 325.112 301.546 325.112 301.545C325.112 301.545 325.112 301.544 325.112 301.544C325.112 301.543 325.112 301.542 325.112 301.542C325.112 301.541 325.112 301.541 325.112 301.54C325.112 301.54 325.112 301.539 325.112 301.539C325.112 301.538 325.112 301.538 325.112 301.537C325.112 301.537 325.112 301.536 325.112 301.536C325.112 301.535 325.112 301.535 325.112 301.534C325.112 301.534 325.112 301.533 325.112 301.533C325.112 301.532 325.112 301.532 325.112 301.531C325.112 301.53 325.112 301.53 325.112 301.529C325.112 301.529 325.112 301.528 325.112 301.528C325.112 301.527 325.112 301.527 325.112 301.526C325.112 301.526 325.112 301.525 325.112 301.525C325.112 301.524 325.112 301.524 325.112 301.523C325.112 301.523 325.112 301.522 325.112 301.522C325.112 301.521 325.112 301.521 325.112 301.52C325.112 301.52 325.112 301.519 325.112 301.519C325.112 301.518 325.112 301.517 325.112 301.517C325.112 301.516 325.112 301.516 325.112 301.515C325.112 301.515 325.112 301.514 325.112 301.514C325.112 301.513 325.112 301.513 325.112 301.512C325.112 301.512 325.112 301.511 325.112 301.511C325.112 301.51 325.112 301.51 325.112 301.509H324.112ZM324.112 302.309V301.309H295.552V302.309V303.309H324.112V302.309ZM295.552 302.309L294.558 302.199C294.394 303.678 294.312 305.208 294.312 306.789H295.312H296.312C296.312 305.277 296.39 303.821 296.546 302.42L295.552 302.309ZM318.672 301.669L319.672 301.659C319.618 296.449 318.618 292.399 316.499 289.693L315.712 290.309L314.924 290.925C316.646 293.126 317.62 296.65 317.672 301.68L318.672 301.669ZM315.712 290.309L316.499 289.693C314.395 287.004 311.628 285.629 308.272 285.629V286.629V287.629C310.996 287.629 313.188 288.707 314.924 290.925L315.712 290.309ZM308.272 286.629V285.629C304.897 285.629 301.921 287.124 299.369 289.96L300.112 290.629L300.855 291.298C303.103 288.801 305.567 287.629 308.272 287.629V286.629ZM300.112 290.629L299.361 289.969C296.848 292.825 295.299 296.709 294.641 301.534L295.632 301.669L296.623 301.804C297.245 297.242 298.683 293.767 300.863 291.29L300.112 290.629ZM295.632 301.669V302.669H318.672V301.669V300.669H295.632V301.669Z" fill="black" mask="url(#path-2-outside-1_2009_95)"/>
</g>
</g>
</svg>
