<svg width="375" height="375" viewBox="0 0 375 375" fill="none" xmlns="http://www.w3.org/2000/svg">
<rect width="375" height="375" fill="#F5F5F5"/>
<rect width="375" height="375" rx="52" fill="black"/>
<path d="M213.645 116.74L261.077 174.875C262.569 176.705 262.579 179.329 261.099 181.169L213.645 240.188M321.79 246.309H257.515M91.5355 153.526L60.3018 114.26C58.6961 112.242 58.8894 109.333 60.7482 107.545L134.739 36.3575C136.685 34.4861 139.764 34.4963 141.697 36.3807L176.929 70.7324C178.231 72.0015 180.119 72.4641 181.86 71.9406L224.214 59.2043C229.19 57.708 232.864 63.8538 229.19 67.5281L86.077 210.641C82.39 214.328 76.2281 210.616 77.763 205.633L92.4009 158.11C92.8868 156.533 92.5629 154.817 91.5355 153.526Z" stroke="white" stroke-width="16" stroke-linejoin="round"/>
<path d="M72.5 310.596C72.5 306.06 71.436 302.56 69.308 300.096C67.18 297.576 64.408 296.316 60.992 296.316C59.088 296.316 57.576 296.4 56.456 296.568C55.392 296.736 54.552 296.932 53.936 297.156V321.768C54.72 322.496 55.868 323.168 57.38 323.784C58.892 324.4 60.46 324.708 62.084 324.708C63.932 324.708 65.5 324.344 66.788 323.616C68.132 322.888 69.224 321.908 70.064 320.676C70.904 319.388 71.52 317.904 71.912 316.224C72.304 314.488 72.5 312.612 72.5 310.596ZM79.64 310.596C79.64 313.564 79.248 316.308 78.464 318.828C77.736 321.292 76.644 323.42 75.188 325.212C73.788 327.004 72.052 328.404 69.98 329.412C67.908 330.42 65.556 330.924 62.924 330.924C60.852 330.924 59.032 330.672 57.464 330.168C55.896 329.664 54.72 329.104 53.936 328.488V343.86H46.964V292.2C48.476 291.752 50.408 291.304 52.76 290.856C55.168 290.408 57.912 290.184 60.992 290.184C63.792 290.184 66.34 290.66 68.636 291.612C70.932 292.564 72.892 293.936 74.516 295.728C76.14 297.464 77.4 299.592 78.296 302.112C79.192 304.632 79.64 307.46 79.64 310.596ZM104.42 325.044C106.156 325.044 107.696 324.988 109.04 324.876C110.44 324.764 111.588 324.624 112.484 324.456V312.864C111.588 312.584 110.496 312.36 109.208 312.192C107.976 312.024 106.66 311.94 105.26 311.94C103.972 311.94 102.712 312.052 101.48 312.276C100.248 312.444 99.156 312.78 98.204 313.284C97.252 313.788 96.468 314.46 95.852 315.3C95.236 316.084 94.928 317.092 94.928 318.324C94.928 320.844 95.768 322.608 97.448 323.616C99.184 324.568 101.508 325.044 104.42 325.044ZM103.748 290.1C106.66 290.1 109.096 290.464 111.056 291.192C113.072 291.92 114.696 292.928 115.928 294.216C117.16 295.504 118.028 297.072 118.532 298.92C119.036 300.768 119.288 302.784 119.288 304.968V329.328C117.664 329.608 115.508 329.944 112.82 330.336C110.188 330.728 107.472 330.924 104.672 330.924C102.544 330.924 100.472 330.728 98.456 330.336C96.44 330 94.648 329.384 93.08 328.488C91.512 327.536 90.252 326.248 89.3 324.624C88.348 323 87.872 320.928 87.872 318.408C87.872 316.168 88.348 314.292 89.3 312.78C90.308 311.212 91.568 309.952 93.08 309C94.648 308.048 96.412 307.376 98.372 306.984C100.388 306.536 102.404 306.312 104.42 306.312C107.164 306.312 109.852 306.62 112.484 307.236V305.304C112.484 304.128 112.344 303.008 112.064 301.944C111.84 300.824 111.364 299.816 110.636 298.92C109.964 298.024 109.012 297.324 107.78 296.82C106.604 296.26 105.064 295.98 103.16 295.98C100.752 295.98 98.652 296.148 96.86 296.484C95.068 296.82 93.696 297.156 92.744 297.492L91.904 291.78C92.856 291.332 94.424 290.94 96.608 290.604C98.848 290.268 101.228 290.1 103.748 290.1ZM154.064 299.256C153.28 298.528 152.132 297.856 150.62 297.24C149.108 296.568 147.54 296.232 145.916 296.232C144.068 296.232 142.472 296.596 141.128 297.324C139.84 298.052 138.776 299.06 137.936 300.348C137.096 301.58 136.48 303.092 136.088 304.884C135.696 306.62 135.5 308.496 135.5 310.512C135.5 315.048 136.564 318.548 138.692 321.012C140.82 323.476 143.592 324.708 147.008 324.708C148.744 324.708 150.2 324.624 151.376 324.456C152.608 324.288 153.504 324.12 154.064 323.952V299.256ZM154.064 272.964L161.036 271.788V328.908C159.524 329.356 157.592 329.804 155.24 330.252C152.888 330.7 150.144 330.924 147.008 330.924C144.208 330.924 141.66 330.448 139.364 329.496C137.068 328.544 135.108 327.2 133.484 325.464C131.86 323.672 130.6 321.516 129.704 318.996C128.808 316.476 128.36 313.648 128.36 310.512C128.36 307.488 128.724 304.744 129.452 302.28C130.236 299.76 131.356 297.604 132.812 295.812C134.268 294.02 136.004 292.62 138.02 291.612C140.092 290.604 142.444 290.1 145.076 290.1C147.148 290.1 148.968 290.352 150.536 290.856C152.104 291.36 153.28 291.892 154.064 292.452V272.964ZM175.988 330V293.124C181.7 291.164 187.468 290.184 193.292 290.184C195.084 290.184 196.792 290.268 198.416 290.436C200.04 290.548 201.832 290.828 203.792 291.276L202.532 297.408C200.74 296.904 199.144 296.596 197.744 296.484C196.4 296.316 194.916 296.232 193.292 296.232C189.876 296.232 186.404 296.708 182.876 297.66V330H175.988ZM247.64 310.512C247.64 313.592 247.192 316.392 246.296 318.912C245.456 321.376 244.252 323.504 242.684 325.296C241.116 327.088 239.24 328.488 237.056 329.496C234.872 330.448 232.492 330.924 229.916 330.924C227.396 330.924 225.044 330.448 222.86 329.496C220.732 328.488 218.884 327.088 217.316 325.296C215.748 323.504 214.516 321.376 213.62 318.912C212.78 316.392 212.36 313.592 212.36 310.512C212.36 307.432 212.78 304.632 213.62 302.112C214.516 299.592 215.748 297.464 217.316 295.728C218.884 293.936 220.732 292.564 222.86 291.612C225.044 290.604 227.396 290.1 229.916 290.1C232.492 290.1 234.872 290.604 237.056 291.612C239.24 292.564 241.116 293.936 242.684 295.728C244.252 297.464 245.456 299.592 246.296 302.112C247.192 304.632 247.64 307.432 247.64 310.512ZM240.5 310.512C240.5 306.088 239.548 302.616 237.644 300.096C235.74 297.52 233.164 296.232 229.916 296.232C226.724 296.232 224.176 297.52 222.272 300.096C220.424 302.616 219.5 306.088 219.5 310.512C219.5 314.88 220.424 318.352 222.272 320.928C224.176 323.448 226.724 324.708 229.916 324.708C233.164 324.708 235.74 323.448 237.644 320.928C239.548 318.352 240.5 314.88 240.5 310.512ZM256.964 292.116C259.484 291.5 261.976 291.024 264.44 290.688C266.96 290.352 269.312 290.184 271.496 290.184C276.704 290.184 280.624 291.528 283.256 294.216C285.944 296.904 287.288 301.216 287.288 307.152V330H280.4V308.412C280.4 305.892 280.176 303.848 279.728 302.28C279.28 300.712 278.636 299.508 277.796 298.668C277.012 297.772 276.032 297.156 274.856 296.82C273.736 296.484 272.504 296.316 271.16 296.316C270.04 296.316 268.836 296.4 267.548 296.568C266.316 296.68 265.112 296.848 263.936 297.072V330H256.964V292.116ZM314.756 290.1C320.02 290.1 324.08 291.752 326.936 295.056C329.792 298.304 331.22 303.26 331.22 309.924V312.36H303.332C303.612 316.392 304.928 319.472 307.28 321.6C309.688 323.672 313.048 324.708 317.36 324.708C319.824 324.708 321.924 324.512 323.66 324.12C325.396 323.728 326.712 323.308 327.608 322.86L328.532 328.74C327.692 329.188 326.18 329.664 323.996 330.168C321.812 330.672 319.348 330.924 316.604 330.924C313.244 330.924 310.276 330.42 307.7 329.412C305.18 328.348 303.08 326.92 301.4 325.128C299.72 323.336 298.46 321.208 297.62 318.744C296.78 316.224 296.36 313.508 296.36 310.596C296.36 307.124 296.892 304.1 297.956 301.524C299.02 298.948 300.42 296.82 302.156 295.14C303.892 293.46 305.852 292.2 308.036 291.36C310.22 290.52 312.46 290.1 314.756 290.1ZM324.164 306.732C324.164 303.428 323.296 300.824 321.56 298.92C319.824 296.96 317.528 295.98 314.672 295.98C313.048 295.98 311.564 296.288 310.22 296.904C308.932 297.52 307.812 298.332 306.86 299.34C305.908 300.348 305.152 301.496 304.592 302.784C304.032 304.072 303.668 305.388 303.5 306.732H324.164Z" fill="white"/>
</svg>
